# Made in Blockbench 5.0.7
mtllib stone2.mtl

o sphere
v 0.2858606557377049 -0.125 -0.28923588999391386
v 0.18767234839488914 0.234375 -0.38200932749391386
v 0.26307563582955934 0.20063002453997453 -0.4875168396199453
v 0.3254001663727654 -0.0044642857142858094 -0.6166038078034333
v 0.31381931183255385 -0.053045763365663245 -0.5207199646199454
v 0.10378972921951948 0.20063002453997453 -0.42782073905660567
v 0.07803879003787323 -0.0044642857142858094 -0.5074028596780497
v 0.13890840522251388 -0.053045763365663245 -0.4766488640566057
v 0.024708295941527014 0.20063002453997453 -0.2905672225520182
v -0.0475833559277376 -0.0044642857142858094 -0.33669392030977807
v 0.050080133943024185 -0.053045763365663245 -0.3227937850520182
v 0.1395575956336392 0.15375502453997453 -0.16532414287622188
v 0.036337666372765476 -0.0044642857142858094 -0.11593287124055454
v 0.09936889458745332 -0.053045763365663245 -0.1492809462470863
v 0.2632414036711511 0.20732645311140308 -0.07202800895397277
v 0.2652760631354312 -0.0044642857142858094 0.005301146729515094
v 0.257901999642856 -0.053045763365663245 -0.057751815367882375
v 0.4328129062528958 0.14705859596854598 -0.10182291593122203
v 0.49368252143753644 -0.0044642857142858094 -0.02419392030977796
v 0.4328129062528958 -0.053045763365663245 -0.101822915931222
v 0.4278911775323855 0.09348716739711727 -0.25567799493580967
v 0.5099296674031475 -0.0044642857142858094 -0.24177785967804974
v 0.5216411775323857 -0.053045763365663245 -0.2556779949358096
v 0.45813622836336637 0.10688002453997453 -0.40456767292617357
v 0.5164287270698575 -0.0044642857142858094 -0.42970802766118266
v 0.4723524168879566 -0.053045763365663245 -0.4291908337407414
vt 0.11100129544246606 0.5531575788624036
vt 0.1450470620636342 0.5276743629498983
vt 0.14450176732284825 0.5530079128842933
vt 0.44890191806769625 0.859375
vt 0.4117993852494179 0.8090098912677715
vt 0.4782625 0.7966728279992151
vt 0.4904620354748202 0.8506402381295082
vt 0.019162936986121162 0.578125
vt 0.03900925096807657 0.5964702936834914
vt 0.020630365829021793 0.6376504319848386
vt 0.0011390484165919451 0.6430538715199088
vt 0.0303449481251222 0.6329515407442059
vt 0.05913264803331482 0.5982405116112559
vt 0.08988975159206537 0.6509238638456094
vt 0.14504706206363424 0.5276743629498983
vt 0.18464862456363423 0.5276743629498983
vt 0.14450174956363424 0.5530087379498984
vt 0.490471875 0.8506837654992151
vt 0.4782625 0.7966728279992151
vt 0.53125 0.7966728279992151
vt 0.5298265625 0.8520712654992151
vt 0.00045713352042466016 0.6432429139448786
vt 0.020630365829021793 0.6376504319848386
vt 0.03054096184827737 0.6809446467750045
vt 0.0075597820584511755 0.6956416951001476
vt 0.03353881837813649 0.6772506168131356
vt 0.0303449481251222 0.6329515407442059
vt 0.08988996214014784 0.6509239273950368
vt 0.18464862456363423 0.5276743629498983
vt 0.20149870455753394 0.5683935717982815
vt 0.14450161708564246 0.5530088215491106
vt 0.1422 0.5
vt 0.125 0.453125
vt 0.1840421875 0.453125
vt 0.1816703125 0.492434375
vt 0.007381604907379172 0.695755643914947
vt 0.03054096184827737 0.6809446467750045
vt 0.06700667562730167 0.7074746096106161
vt 0.05758807190962653 0.7267310427307294
vt 0.06700667562730167 0.7074746096106161
vt 0.03353881837813649 0.6772506168131356
vt 0.08988971803707868 0.6509240414375435
vt 0.20149870455753394 0.5683935717982815
vt 0.20134328938608884 0.609375
vt 0.14450103779635476 0.5530086651863663
vt 0.4564784624987577 0.7558504497707872
vt 0.43945189999875767 0.7101004497707871
vt 0.5042159624987577 0.7101004497707871
vt 0.4947206499987577 0.7643426372707871
vt 0.05752855062730168 0.7268527346106162
vt 0.06700667562730167 0.7074746096106161
vt 0.11277230062730167 0.7074746096106161
vt 0.12225042562730166 0.7250058596106161
vt 0.11277230062730167 0.7074746096106161
vt 0.06700667562730167 0.7074746096106161
vt 0.08988948812730167 0.6509246096106162
vt 0.296875 0.8860638564876184
vt 0.30439375 0.8410841689876185
vt 0.3743390625 0.9062497939876185
vt 0.4944961672591516 0.765625
vt 0.5042159624987577 0.7101004497707871
vt 0.5605481000012423 0.7220063656833733
vt 0.5393552319783043 0.761315816376686
vt 0.12456440986816823 0.7236096621180329
vt 0.11277230062730166 0.7074746096106161
vt 0.14624015787646683 0.6772506168131356
vt 0.17060372853096828 0.6892877169193499
vt 0.14624015787646683 0.6772506168131356
vt 0.11277230062730167 0.7074746096106161
vt 0.08988925821752466 0.6509240414375435
vt 0.30439375 0.8410841689876185
vt 0.3447891066412743 0.8357408986593631
vt 0.37433888527724846 0.9062496288753192
vt 0.5338453125 1
vt 0.515625 0.953125
vt 0.5701734375 0.953125
vt 0.5721109375 0.9893796875
vt 0.17141786647957535 0.6882881904142883
vt 0.14624015787646683 0.6772506168131356
vt 0.14943402812948114 0.6329515407442059
vt 0.15408848369161704 0.6377721663379867
vt 0.14943402812948114 0.6329515407442059
vt 0.14624015787646683 0.6772506168131356
vt 0.0898890141144555 0.6509239273950368
vt 0.3447891066412743 0.8357408986593631
vt 0.3827107911729505 0.8317537161319892
vt 0.37433873598980844 0.9062492726605413
vt 0.3447891066412743 0.8357408986593631
vt 0.3399401374156848 0.8039788512036008
vt 0.3868506908575223 0.8009083104679293
vt 0.38207361017345914 0.8318207109656661
vt 0.203125 0.75
vt 0.1875 0.746262683985091
vt 0.19177914412778346 0.7013708569449012
vt 0.203125 0.7050471574131221
vt 0.12064632822128853 0.5982405116112559
vt 0.14943402812948114 0.6329515407442059
vt 0.08988922466253797 0.6509238638456094
vt 0.3827107911729505 0.8317537161319892
vt 0.40145682466967203 0.8865810737036983
vt 0.37433865424901247 0.90625
vt 0.3341453125 0.47027343750000006
vt 0.328125 0.4375
vt 0.3949359375 0.4375
vt 0.3835046875 0.5
vt 0.45573335143044647 0.6832811644485375
vt 0.46372467314984844 0.6689607838284982
vt 0.5092274120473708 0.6640625
vt 0.5208291485695535 0.6832811644485375
vt 0.07535388398385462 0.5916764483391992
vt 0.12064632822128853 0.5982405116112559
vt 0.08988926356442613 0.6509237972111854
vn -0.14836477452628835 0.9062383293929496 -0.39587874913771204
vn -0.36786526269360287 0.4126851521318516 -0.8332863335692462
vn -0.1159093910885817 -0.8803078052540771 -0.460025196121065
vn -0.07669521628009027 -0.9494546812058442 -0.3043906242578099
vn -0.28853515151390574 0.942926251070166 -0.16624545522693213
vn -0.7646006869055754 0.31432717907074376 -0.5626581680567262
vn -0.5029871530204875 -0.8140466193827351 -0.29039976819530183
vn -0.2681438598986039 -0.9508584685421051 -0.1548129296940042
vn 0.0018196191913084918 0.9370981770427896 0.34906116307758933
vn -0.9069236556409438 0.24213391968977158 0.3447617260870679
vn -0.45634820176605195 -0.8803078052540769 0.1296321208406352
vn -0.3019576214211122 -0.9494546812058442 0.08577530648160496
vn -0.5113281115091817 0.8363519412173793 0.19763348097520153
vn -0.4046116894460678 0.5024818271806664 0.7640689720939976
vn -0.3133878272225471 -0.7791997683488642 0.5428036392230686
vn -0.15905010884519374 -0.9480570929566047 0.2754828694692357
vn 0.33497662382430715 0.9422262751926218 0.0005548224099150568
vn 0.12037129854137676 0.34150051022450534 0.9321417016762341
vn 0.14928368799826697 -0.7916306926192788 0.5924822588067572
vn 0.07669521628009023 -0.9494546812058441 0.3043906242578099
vn 0.5913811964419086 0.7554860179715954 -0.2819736816519572
vn 0.9131931120755487 0.4017818205621475 0.06818877270886277
vn 0.40601761343024645 -0.8832890788293544 0.23441437840968235
vn 0.26814385989860395 -0.9508584685421051 0.15481292969400443
vn 0.4317656892727204 0.8863095949132221 0.16743264774712457
vn 0.7645139924061144 0.6440647115048347 0.026438661264475805
vn 0.9187857973267202 0.2961668117390539 -0.26099401957712937
vn 0.3019576214211122 -0.9494546812058441 -0.0857753064816049
vn 0.4274546359751363 0.9038881214473676 0.016395062967642513
vn 0.6185453714096909 0.4665785659803074 -0.6322231135251286
vn 0.4537525617143826 -0.420041011034092 -0.785922490953843
vn 0.15905010884519385 -0.9480570929566047 -0.2754828694692357
usemtl m_7a46b6c7-b93a-8396-343e-027585ab525c
f 3/1/1 6/2/1 2/3/1
f 3/4/2 4/5/2 7/6/2 6/7/2
f 4/8/3 5/9/3 8/10/3 7/11/3
f 8/12/4 5/13/4 1/14/4
f 6/15/5 9/16/5 2/17/5
f 6/18/6 7/19/6 10/20/6 9/21/6
f 7/22/7 8/23/7 11/24/7 10/25/7
f 11/26/8 8/27/8 1/28/8
f 9/29/9 12/30/9 2/31/9
f 9/32/10 10/33/10 13/34/10 12/35/10
f 10/36/11 11/37/11 14/38/11 13/39/11
f 14/40/12 11/41/12 1/42/12
f 12/43/13 15/44/13 2/45/13
f 12/46/14 13/47/14 16/48/14 15/49/14
f 13/50/15 14/51/15 17/52/15 16/53/15
f 17/54/16 14/55/16 1/56/16
f 15/57/17 18/58/17 2/59/17
f 15/60/18 16/61/18 19/62/18 18/63/18
f 16/64/19 17/65/19 20/66/19 19/67/19
f 20/68/20 17/69/20 1/70/20
f 18/71/21 21/72/21 2/73/21
f 18/74/22 19/75/22 22/76/22 21/77/22
f 19/78/23 20/79/23 23/80/23 22/81/23
f 23/82/24 20/83/24 1/84/24
f 21/85/25 24/86/25 2/87/25
f 21/88/26 22/89/26 25/90/26 24/91/26
f 22/92/27 23/93/27 26/94/27 25/95/27
f 26/96/28 23/97/28 1/98/28
f 24/99/29 3/100/29 2/101/29
f 24/102/30 25/103/30 4/104/30 3/105/30
f 25/106/31 26/107/31 5/108/31 4/109/31
f 5/110/32 26/111/32 1/112/32
o sphere
v -0.078125 -0.09375 0.203125
v 0.21875 0.34375 0.203125
v 0.16207160940672624 0.28615169529663687 0.5566783905932737
v 0.12898178118654754 0.046875 0.703125
v 0.06832160940672627 -0.00980339059327373 0.5566783905932738
v 0.3691783905932738 0.28615169529663687 0.34957160940672627
v 0.421875 0.046875 0.4102317811865476
v 0.27542839059327384 -0.00980339059327373 0.34957160940672627
v 0.3223033905932738 0.28615169529663687 0.056678390593273786
v 0.421875 0.046875 -0.003981781186547517
v 0.27542839059327384 -0.00980339059327373 0.05667839059327376
v 0.1620716094067263 0.28615169529663687 -0.056678390593273786
v 0.1289817811865476 0.046875 -0.25
v 0.0683216094067263 -0.00980339059327373 -0.15042839059327384
v -0.08394660940672621 0.2392766952966369 -0.08792839059327379
v -0.28523178118654746 0.046875 -0.2343750000000001
v -0.2245716094067262 -0.00980339059327373 -0.15042839059327384
v -0.4316783905932737 0.2236516952966369 0.05667839059327354
v -0.5781249999999999 0.046875 -0.00398178118654785
v -0.43167839059327373 -0.00980339059327373 0.05667839059327351
v -0.43167839059327373 0.1611516952966369 0.3495716094067263
v -0.578125 0.046875 0.4102317811865477
v -0.4316783905932738 -0.00980339059327373 0.3495716094067264
v -0.2245716094067265 0.1767766952966369 0.5098033905932737
v -0.2852317811865479 0.046875 0.5937499999999999
v -0.2245716094067265 -0.00980339059327373 0.5566783905932737
vt 0.316567930131616 0.78125
vt 0.24792635422043408 0.7557547875916701
vt 0.2675337515729244 0.7049845722442359
vt 0.4736515625 0.640625
vt 0.4419140625 0.578125
vt 0.5454671875 0.578125
vt 0.546875 0.640625
vt 0.06204233343255233 0.75
vt 0.08568685609424506 0.7848153496611262
vt 0.04400733646238805 0.8450171820399939
vt 0.0030975917637867667 0.8351396918415149
vt 0.053971511657958104 0.8409349355069566
vt 0.102678548577805 0.7862625701565871
vt 0.14615623650761822 0.8740288632316016
vt 0.24792635422043408 0.7557547875916701
vt 0.22474321672195668 0.6853171569248926
vt 0.2675337016680127 0.7049847014650127
vt 0.4555765625 0.5599796875
vt 0.4404109375 0.5
vt 0.5439640625 0.5
vt 0.5287984375 0.5625
vt 0.0030975917637867945 0.8351396918415149
vt 0.04400733646238805 0.8450171820399939
vt 0.05362543254553556 0.9176046135019967
vt 0.016699864390104874 0.9377955629676465
vt 0.056784459771964835 0.914102758362523
vt 0.05397151165795812 0.8409349355069566
vt 0.14615623650761822 0.8740288632316016
vt 0.22474321672195668 0.6853171569248926
vt 0.24522661890843347 0.6407282293595258
vt 0.26753496189246384 0.7049852806947305
vt 0.2124328125 0.513921875
vt 0.203125 0.453125
vt 0.2987515625 0.453125
vt 0.2613328125 0.515625
vt 0.016699864390104874 0.9377955629676465
vt 0.053625432545535576 0.9176046135019967
vt 0.10954529900761817 0.9648741757316015
vt 0.09444484823303224 0.9933948293066797
vt 0.10954529900761817 0.9648741757316015
vt 0.056784459771964835 0.914102758362523
vt 0.14615623650761822 0.8740288632316016
vt 0.24522661890843347 0.6407282293595258
vt 0.2933601171402682 0.5999324005439812
vt 0.2675353128950614 0.7049862917241893
vt 0.2423637214829104 0.6370827983973982
vt 0.21963180467921006 0.563151483211153
vt 0.3157996650601761 0.5245482827568718
vt 0.2933603161599016 0.5999317319512119
vt 0.09437967400761815 0.9935179257316015
vt 0.10954529900761817 0.9648741757316015
vt 0.18276717400761816 0.9648741757316015
vt 0.19793279900761818 0.9901226132316014
vt 0.18276717400761816 0.9648741757316015
vt 0.10954529900761817 0.9648741757316015
vt 0.14615623650761816 0.8740288632316014
vt 0.2933601171402682 0.5999324005439812
vt 0.38627261714026817 0.5842214630439813
vt 0.26753511714026823 0.7049870880439812
vt 0.2933601171402682 0.5999324005439812
vt 0.3157996650601761 0.5245482827568718
vt 0.4087170417422098 0.5313019866872398
vt 0.38540879143920737 0.5843675307054935
vt 0.20006593527479985 0.9887885238744554
vt 0.18276717400761816 0.9648741757316015
vt 0.2355280132432715 0.914102758362523
vt 0.2734221979545005 0.9316101185176835
vt 0.2355280132432715 0.914102758362523
vt 0.18276717400761816 0.9648741757316015
vt 0.1461562365076181 0.8740288632316016
vt 0.38627261714026817 0.5842214630439813
vt 0.4296875 0.6452218981889646
vt 0.26753531289993016 0.7049868889405984
vt 0.018076562499999997 0.53125
vt 0.002910937500000002 0.46875
vt 0.1064640625 0.46875
vt 0.09129843750000001 0.5192171875
vt 0.27417423139127106 0.9307653466003392
vt 0.2355280132432715 0.914102758362523
vt 0.23834096135727822 0.8409349355069566
vt 0.27815240823621323 0.8272886641725767
vt 0.23834096135727822 0.8409349355069566
vt 0.2355280132432715 0.914102758362523
vt 0.1461562365076181 0.8740288632316016
vt 0.4296875 0.6452218981889646
vt 0.40859725202514297 0.7073177122543352
vt 0.26753529314916696 0.7049868962202053
vt 0.3273544511577706 0.9836177975100503
vt 0.296875 0.9454392135533163
vt 0.3818234760278771 0.9296171875
vt 0.3909857052013068 0.9694822713036396
vt 0.27774162030849825 0.8261443946738622
vt 0.23834096135727822 0.8409349355069566
vt 0.18963392443743132 0.7862625701565871
vt 0.2082561440991385 0.7752553740104273
vt 0.18963392443743132 0.7862625701565871
vt 0.23834096135727822 0.8409349355069566
vt 0.1461562365076181 0.8740288632316016
vt 0.40859725202514297 0.7073177122543352
vt 0.32988171386535436 0.7708165781204068
vt 0.26753498878795706 0.7049868911911386
vt 0.3911266010278771 0.9700953125
vt 0.3818234760278771 0.9296171875
vt 0.48892503852787705 0.9296171875
vt 0.4875766010278771 1
vt 0.4242479073920914 0.9044009374771224
vt 0.43683554883508 0.8854743770102578
vt 0.5093043725095582 0.875
vt 0.5288770926079086 0.9044009374771224
vt 0.11662817821293983 0.7806408269464453
vt 0.18963392443743132 0.7862625701565871
vt 0.14615623650761814 0.8740288632316016
vn 0.1871003074611171 0.9643583099117832 0.18710030746111714
vn 0.6704863756547161 0.31764137029487477 0.6704863756547161
vn 0.25521978995704 -0.9325908629343144 0.25521978995704
vn 0.16335176743810007 -0.9729503585228271 0.16335176743810007
vn 0.41216129171151733 0.9087199661878865 -0.06596281275218793
vn 0.9765967061906993 0.21507876105621715 0
vn 0.36093528834325855 -0.9325908629343144 0
vn 0.23101428494857684 -0.9729503585228271 0
vn 0.17658509752902346 0.9521105478471061 -0.24960610571247804
vn 0.5839242422126194 0.4192307123760628 -0.6951820546857328
vn 0.25521978995704003 -0.9325908629343144 -0.25521978995704
vn 0.1633517674381001 -0.9729503585228271 -0.16335176743810007
vn -0.16203712890294503 0.9702734294416707 -0.17975939746335928
vn -0.02925468175083112 0.630630188797348 -0.7755319004225931
vn 0 -0.8690678579604071 -0.49469289287406354
vn 0 -0.9729503585228271 -0.23101428494857684
vn -0.13131498052117446 0.9686014546979338 -0.21111039256220973
vn -0.38715673741514345 0.7796574486475162 -0.49218281506215494
vn -0.34280726582900045 -0.8746235515864469 -0.34280726582900073
vn -0.1633517674381 -0.9729503585228272 -0.16335176743810012
vn -0.22189373679667382 0.953601603865081 0.2034874705635557
vn -0.7700761523791289 0.6379519727510505 -7.297508274087006e-17
vn -0.3609352883432586 -0.9325908629343143 -7.543324134519094e-17
vn -0.2310142849485769 -0.9729503585228271 -4.3783427149021885e-17
vn -0.22383117906392883 0.954671920287163 0.19621704282266755
vn -0.35183135085699857 0.748939788281721 0.5615192731177359
vn -0.2552197899570399 -0.9325908629343143 0.2552197899570398
vn -0.16335176743810007 -0.9729503585228271 0.1633517674381
vn -0.2828658549980436 0.9528443878977392 0.10988394117435213
vn -0.20482815998761966 0.596933043156822 0.775703788094155
vn -3.2794419459006083e-16 -0.5473803225727022 0.8368839719221565
vn -8.756685429804381e-17 -0.9729503585228272 0.2310142849485769
usemtl m_7a46b6c7-b93a-8396-343e-027585ab525c
f 29/113/33 32/114/33 28/115/33
f 29/116/34 30/117/34 33/118/34 32/119/34
f 30/120/35 31/121/35 34/122/35 33/123/35
f 34/124/36 31/125/36 27/126/36
f 32/127/37 35/128/37 28/129/37
f 32/130/38 33/131/38 36/132/38 35/133/38
f 33/134/39 34/135/39 37/136/39 36/137/39
f 37/138/40 34/139/40 27/140/40
f 35/141/41 38/142/41 28/143/41
f 35/144/42 36/145/42 39/146/42 38/147/42
f 36/148/43 37/149/43 40/150/43 39/151/43
f 40/152/44 37/153/44 27/154/44
f 38/155/45 41/156/45 28/157/45
f 38/158/46 39/159/46 42/160/46 41/161/46
f 39/162/47 40/163/47 43/164/47 42/165/47
f 43/166/48 40/167/48 27/168/48
f 41/169/49 44/170/49 28/171/49
f 41/172/50 42/173/50 45/174/50 44/175/50
f 42/176/51 43/177/51 46/178/51 45/179/51
f 46/180/52 43/181/52 27/182/52
f 44/183/53 47/184/53 28/185/53
f 44/186/54 45/187/54 48/188/54 47/189/54
f 45/190/55 46/191/55 49/192/55 48/193/55
f 49/194/56 46/195/56 27/196/56
f 47/197/57 50/198/57 28/199/57
f 47/200/58 48/201/58 51/202/58 50/203/58
f 48/204/59 49/205/59 52/206/59 51/207/59
f 52/208/60 49/209/60 27/210/60
f 50/211/61 29/212/61 28/213/61
f 50/214/62 51/215/62 30/216/62 29/217/62
f 51/218/63 52/219/63 31/220/63 30/221/63
f 31/222/64 52/223/64 27/224/64