{"asset":{"version":"2.0","generator":"Blockbench 5.0.7 glTF exporter"},"scenes":[{"nodes":[2],"name":"blockbench_export"}],"scene":0,"nodes":[{"rotation":[0,0.9659258262890683,0,0.25881904510252074],"translation":[0.359375,-0.0625,-0.484375],"name":"sphere","mesh":0},{"name":"sphere","mesh":1},{"translation":[-0.078125,0.375,0.203125],"name":"stone","children":[0,1]}],"bufferViews":[{"buffer":0,"byteOffset":0,"byteLength":1344,"target":34962,"byteStride":12},{"buffer":0,"byteOffset":1344,"byteLength":1344,"target":34962,"byteStride":12},{"buffer":0,"byteOffset":2688,"byteLength":896,"target":34962,"byteStride":8},{"buffer":0,"byteOffset":3584,"byteLength":288,"target":34963},{"buffer":0,"byteOffset":3872,"byteLength":1344,"target":34962,"byteStride":12},{"buffer":0,"byteOffset":5216,"byteLength":1344,"target":34962,"byteStride":12},{"buffer":0,"byteOffset":6560,"byteLength":896,"target":34962,"byteStride":8},{"buffer":0,"byteOffset":7456,"byteLength":288,"target":34963}],"buffers":[{"byteLength":7744,"uri":"data:application/octet-stream;base64,"}],"accessors":[{"bufferView":0,"componentType":5126,"count":112,"max":[0.3125,-0.078125,0.3125],"min":[-0.3125,-0.4375,-0.265625],"type":"VEC3"},{"bufferView":1,"componentType":5126,"count":112,"max":[0.9434927105903625,0.9429262280464172,0.9075050950050354],"min":[-0.8249428272247314,-0.950858473777771,-0.8640089631080627],"type":"VEC3"},{"bufferView":2,"componentType":5126,"count":112,"max":[0.5721109509468079,0.5625],"min":[0.0004571335157379508,0],"type":"VEC2"},{"bufferView":3,"componentType":5123,"count":144,"max":[111],"min":[0],"type":"SCALAR"},{"bufferView":4,"componentType":5126,"count":112,"max":[0.5,-0.03125,0.5],"min":[-0.5,-0.46875,-0.453125],"type":"VEC3"},{"bufferView":5,"componentType":5126,"count":112,"max":[0.9765967130661011,0.9702734351158142,0.8368839621543884],"min":[-0.7700761556625366,-0.9729503393173218,-0.7755318880081177],"type":"VEC3"},{"bufferView":6,"componentType":5126,"count":112,"max":[0.546875,0.546875],"min":[0.0029109374154359102,0],"type":"VEC2"},{"bufferView":7,"componentType":5123,"count":144,"max":[111],"min":[0],"type":"SCALAR"}],"materials":[{"pbrMetallicRoughness":{"metallicFactor":0,"roughnessFactor":1,"baseColorTexture":{"index":0}},"alphaMode":"MASK","alphaCutoff":0.05,"doubleSided":true}],"textures":[{"sampler":0,"source":0,"name":"texture"}],"samplers":[{"magFilter":9728,"minFilter":9728,"wrapS":33071,"wrapT":33071}],"images":[{"mimeType":"image/png","uri":"data:image/png;base64,"}],"meshes":[{"primitives":[{"mode":4,"attributes":{"POSITION":0,"NORMAL":1,"TEXCOORD_0":2},"indices":3,"material":0}]},{"primitives":[{"mode":4,"attributes":{"POSITION":4,"NORMAL":5,"TEXCOORD_0":6},"indices":7,"material":0}]}]}