solid exported
	facet normal 0.24084746466692766 0.9402047636164295 0.24084746466692766
		outer loop
			vertex 2.0931458473205566 2.8681448101997375 5.656854152679443
			vertex 5.406854152679443 2.8681448101997375 2.3431458473205566
			vertex -3.5 5.75 0
		endloop
	endfacet
	facet normal 0.5150221853788434 0.6852038164997585 0.5150222115809818
		outer loop
			vertex 2.0931458473205566 2.8681448101997375 5.656854152679443
			vertex 4.563708305358887 -0.75 8
			vertex 9.25 -0.75 3.313708543777466
		endloop
	endfacet
	facet normal 0.5150221863407115 0.6852038347482207 0.5150221863407115
		outer loop
			vertex 2.0931458473205566 2.8681448101997375 5.656854152679443
			vertex 9.25 -0.75 3.313708543777466
			vertex 5.406854152679443 2.8681448101997375 2.3431458473205566
		endloop
	endfacet
	facet normal 0.243195643080888 -0.9389950789929341 0.243195643080888
		outer loop
			vertex 4.563708305358887 -0.75 8
			vertex 2.3431458473205566 -1.9319806098937988 5.656854152679443
			vertex 5.656854152679443 -1.9319806098937988 2.3431458473205566
		endloop
	endfacet
	facet normal 0.2431956288268203 -0.9389950831719264 0.24319564119957962
		outer loop
			vertex 4.563708305358887 -0.75 8
			vertex 5.656854152679443 -1.9319806098937988 2.3431458473205566
			vertex 9.25 -0.75 3.313708543777466
		endloop
	endfacet
	facet normal 0.16045470039752943 -0.9739140507461007 0.16045470039752943
		outer loop
			vertex 5.656854152679443 -1.9319806098937988 2.3431458473205566
			vertex 2.3431458473205566 -1.9319806098937988 5.656854152679443
			vertex 0 -3.25 0
		endloop
	endfacet
	facet normal 0.237801296365962 0.9385012833750735 0.2503315492502048
		outer loop
			vertex 5.406854152679443 2.8681448101997375 2.3431458473205566
			vertex 5.406854152679443 4.118144869804382 -2.3431458473205566
			vertex -3.5 5.75 0
		endloop
	endfacet
	facet normal 0.6854718216004718 0.7280991565657324 0
		outer loop
			vertex 5.406854152679443 2.8681448101997375 2.3431458473205566
			vertex 9.25 -0.75 3.313708543777466
			vertex 9.25 -0.75 -3.313708543777466
		endloop
	endfacet
	facet normal 0.7901115908239564 0.5922561533398718 0.157975703437887
		outer loop
			vertex 5.406854152679443 2.8681448101997375 2.3431458473205566
			vertex 9.25 -0.75 -3.313708543777466
			vertex 5.406854152679443 4.118144869804382 -2.3431458473205566
		endloop
	endfacet
	facet normal 0.3124814904846357 -0.9499238485818221 0
		outer loop
			vertex 9.25 -0.75 3.313708543777466
			vertex 5.656854152679443 -1.9319806098937988 2.3431458473205566
			vertex 5.656854152679443 -1.9319806098937988 -2.3431458473205566
		endloop
	endfacet
	facet normal 0.3124814904846357 -0.9499238485818222 0
		outer loop
			vertex 9.25 -0.75 3.313708543777466
			vertex 5.656854152679443 -1.9319806098937988 -2.3431458473205566
			vertex 9.25 -0.75 -3.313708543777466
		endloop
	endfacet
	facet normal 0.2269172171322524 -0.9739140498878504 0
		outer loop
			vertex 5.656854152679443 -1.9319806098937988 -2.3431458473205566
			vertex 5.656854152679443 -1.9319806098937988 2.3431458473205566
			vertex 0 -3.25 0
		endloop
	endfacet
	facet normal 0.11510533004431099 0.9652331777176757 -0.2346820735131428
		outer loop
			vertex 5.406854152679443 4.118144869804382 -2.3431458473205566
			vertex -1.406854271888733 4.368144869804382 -4.656854152679443
			vertex -3.5 5.75 0
		endloop
	endfacet
	facet normal 0.520552666569997 0.5424142804401725 -0.6594025096262794
		outer loop
			vertex 5.406854152679443 4.118144869804382 -2.3431458473205566
			vertex 9.25 -0.75 -3.313708543777466
			vertex 3.313708543777466 -0.75 -8
		endloop
	endfacet
	facet normal 0.25708756762552465 0.6834188754947205 -0.683260289487047
		outer loop
			vertex 5.406854152679443 4.118144869804382 -2.3431458473205566
			vertex 3.313708543777466 -0.75 -8
			vertex -1.406854271888733 4.368144869804382 -4.656854152679443
		endloop
	endfacet
	facet normal 0.2431956318786545 -0.9389950847955936 -0.2431956318786545
		outer loop
			vertex 9.25 -0.75 -3.313708543777466
			vertex 5.656854152679443 -1.9319806098937988 -2.3431458473205566
			vertex 2.3431458473205566 -1.9319806098937988 -5.656854152679443
		endloop
	endfacet
	facet normal 0.27008477203193804 -0.9000022494700167 -0.34212595175661004
		outer loop
			vertex 9.25 -0.75 -3.313708543777466
			vertex 2.3431458473205566 -1.9319806098937988 -5.656854152679443
			vertex 3.313708543777466 -0.75 -8
		endloop
	endfacet
	facet normal 0.16045470039752943 -0.9739140507461007 -0.16045470039752943
		outer loop
			vertex 2.3431458473205566 -1.9319806098937988 -5.656854152679443
			vertex 5.656854152679443 -1.9319806098937988 -2.3431458473205566
			vertex 0 -3.25 0
		endloop
	endfacet
	facet normal -0.2202353060490786 0.9037114123692394 -0.36715404549461755
		outer loop
			vertex -1.406854271888733 4.368144869804382 -4.656854152679443
			vertex -3.8431458473205566 3.3681448101997375 -5.656854152679443
			vertex -3.5 5.75 0
		endloop
	endfacet
	facet normal 0 0.5468673219025576 -0.8372192856325783
		outer loop
			vertex -1.406854271888733 4.368144869804382 -4.656854152679443
			vertex 3.313708543777466 -0.75 -8
			vertex -3.313708543777466 -0.75 -8
		endloop
	endfacet
	facet normal 0.14320623457362133 0.5032814031532611 -0.8521735759921976
		outer loop
			vertex -1.406854271888733 4.368144869804382 -4.656854152679443
			vertex -3.313708543777466 -0.75 -8
			vertex -3.8431458473205566 3.3681448101997375 -5.656854152679443
		endloop
	endfacet
	facet normal 0 -0.8928352610580399 -0.4503833884718904
		outer loop
			vertex 3.313708543777466 -0.75 -8
			vertex 2.3431458473205566 -1.9319806098937988 -5.656854152679443
			vertex -2.3431458473205566 -1.9319806098937988 -5.656854152679443
		endloop
	endfacet
	facet normal 0 -0.89283526105804 -0.45038338847189047
		outer loop
			vertex 3.313708543777466 -0.75 -8
			vertex -2.3431458473205566 -1.9319806098937988 -5.656854152679443
			vertex -3.313708543777466 -0.75 -8
		endloop
	endfacet
	facet normal 0 -0.9739140498878504 -0.2269172171322524
		outer loop
			vertex -2.3431458473205566 -1.9319806098937988 -5.656854152679443
			vertex 2.3431458473205566 -1.9319806098937988 -5.656854152679443
			vertex 0 -3.25 0
		endloop
	endfacet
	facet normal -0.2894600578666226 0.8883328049214535 -0.3564795963308903
		outer loop
			vertex -3.8431458473205566 3.3681448101997375 -5.656854152679443
			vertex -7.156854152679443 3.6181448101997375 -2.3431458473205566
			vertex -3.5 5.75 0
		endloop
	endfacet
	facet normal -0.6751259186012216 0.29733817122211786 -0.6751259186012216
		outer loop
			vertex -3.8431458473205566 3.3681448101997375 -5.656854152679443
			vertex -3.313708543777466 -0.75 -8
			vertex -8 -0.75 -3.313708543777466
		endloop
	endfacet
	facet normal -0.6676966137449438 0.2819625577674736 -0.6889690472080436
		outer loop
			vertex -3.8431458473205566 3.3681448101997375 -5.656854152679443
			vertex -8 -0.75 -3.313708543777466
			vertex -7.156854152679443 3.6181448101997375 -2.3431458473205566
		endloop
	endfacet
	facet normal -0.31846915517984087 -0.8928352560232359 -0.31846915517984087
		outer loop
			vertex -3.313708543777466 -0.75 -8
			vertex -2.3431458473205566 -1.9319806098937988 -5.656854152679443
			vertex -5.656854152679443 -1.9319806098937988 -2.3431458473205566
		endloop
	endfacet
	facet normal -0.31846915517984087 -0.8928352560232359 -0.31846915517984087
		outer loop
			vertex -3.313708543777466 -0.75 -8
			vertex -5.656854152679443 -1.9319806098937988 -2.3431458473205566
			vertex -8 -0.75 -3.313708543777466
		endloop
	endfacet
	facet normal -0.16045470039752943 -0.9739140507461007 -0.16045470039752943
		outer loop
			vertex -5.656854152679443 -1.9319806098937988 -2.3431458473205566
			vertex -2.3431458473205566 -1.9319806098937988 -5.656854152679443
			vertex 0 -3.25 0
		endloop
	endfacet
	facet normal -0.5036401465876071 0.8639135389292227 0
		outer loop
			vertex -7.156854152679443 3.6181448101997375 -2.3431458473205566
			vertex -7.156854152679443 3.6181448101997375 2.3431458473205566
			vertex -3.5 5.75 0
		endloop
	endfacet
	facet normal -0.9818762390256097 0.18952322083830234 0
		outer loop
			vertex -7.156854152679443 3.6181448101997375 -2.3431458473205566
			vertex -8 -0.75 -3.313708543777466
			vertex -8 -0.75 3.313708543777466
		endloop
	endfacet
	facet normal -0.9818762390256096 0.18952322083830234 0
		outer loop
			vertex -7.156854152679443 3.6181448101997375 -2.3431458473205566
			vertex -8 -0.75 3.313708543777466
			vertex -7.156854152679443 3.6181448101997375 2.3431458473205566
		endloop
	endfacet
	facet normal -0.4503833884718904 -0.8928352610580399 0
		outer loop
			vertex -8 -0.75 -3.313708543777466
			vertex -5.656854152679443 -1.9319806098937988 -2.3431458473205566
			vertex -5.656854152679443 -1.9319806098937988 2.3431458473205566
		endloop
	endfacet
	facet normal -0.45038338847189047 -0.89283526105804 0
		outer loop
			vertex -8 -0.75 -3.313708543777466
			vertex -5.656854152679443 -1.9319806098937988 2.3431458473205566
			vertex -8 -0.75 3.313708543777466
		endloop
	endfacet
	facet normal -0.2269172171322524 -0.9739140498878504 0
		outer loop
			vertex -5.656854152679443 -1.9319806098937988 2.3431458473205566
			vertex -5.656854152679443 -1.9319806098937988 -2.3431458473205566
			vertex 0 -3.25 0
		endloop
	endfacet
	facet normal -0.31748224796564994 0.8935379367734508 0.31748224796564994
		outer loop
			vertex -7.156854152679443 3.6181448101997375 2.3431458473205566
			vertex -3.8431458473205566 3.6181448101997375 5.656854152679443
			vertex -3.5 5.75 0
		endloop
	endfacet
	facet normal -0.6784689184706112 0.28170880947999904 0.6784689184706112
		outer loop
			vertex -7.156854152679443 3.6181448101997375 2.3431458473205566
			vertex -8 -0.75 3.313708543777466
			vertex -3.313708543777466 -0.75 8
		endloop
	endfacet
	facet normal -0.6784689184706112 0.28170880947999904 0.6784689184706112
		outer loop
			vertex -7.156854152679443 3.6181448101997375 2.3431458473205566
			vertex -3.313708543777466 -0.75 8
			vertex -3.8431458473205566 3.6181448101997375 5.656854152679443
		endloop
	endfacet
	facet normal -0.31846915517984087 -0.8928352560232359 0.31846915517984087
		outer loop
			vertex -8 -0.75 3.313708543777466
			vertex -5.656854152679443 -1.9319806098937988 2.3431458473205566
			vertex -2.3431458473205566 -1.9319806098937988 5.656854152679443
		endloop
	endfacet
	facet normal -0.31846915517984087 -0.8928352560232359 0.31846915517984087
		outer loop
			vertex -8 -0.75 3.313708543777466
			vertex -2.3431458473205566 -1.9319806098937988 5.656854152679443
			vertex -3.313708543777466 -0.75 8
		endloop
	endfacet
	facet normal -0.16045470039752943 -0.9739140507461007 0.16045470039752943
		outer loop
			vertex -2.3431458473205566 -1.9319806098937988 5.656854152679443
			vertex -5.656854152679443 -1.9319806098937988 2.3431458473205566
			vertex 0 -3.25 0
		endloop
	endfacet
	facet normal 0.11711233476267845 0.9269506402556237 0.35643682690783235
		outer loop
			vertex -3.8431458473205566 3.6181448101997375 5.656854152679443
			vertex 2.0931458473205566 2.8681448101997375 5.656854152679443
			vertex -3.5 5.75 0
		endloop
	endfacet
	facet normal 0 0.47270229997052504 0.8812221828815793
		outer loop
			vertex -3.8431458473205566 3.6181448101997375 5.656854152679443
			vertex -3.313708543777466 -0.75 8
			vertex 4.563708305358887 -0.75 8
		endloop
	endfacet
	facet normal 0.07286222221804473 0.5767085394747655 0.8136942651084197
		outer loop
			vertex -3.8431458473205566 3.6181448101997375 5.656854152679443
			vertex 4.563708305358887 -0.75 8
			vertex 2.0931458473205566 2.8681448101997375 5.656854152679443
		endloop
	endfacet
	facet normal 0 -0.8928352610580399 0.4503833884718904
		outer loop
			vertex -3.313708543777466 -0.75 8
			vertex -2.3431458473205566 -1.9319806098937988 5.656854152679443
			vertex 2.3431458473205566 -1.9319806098937988 5.656854152679443
		endloop
	endfacet
	facet normal 0 -0.8928352610580399 0.4503833884718904
		outer loop
			vertex -3.313708543777466 -0.75 8
			vertex 2.3431458473205566 -1.9319806098937988 5.656854152679443
			vertex 4.563708305358887 -0.75 8
		endloop
	endfacet
	facet normal 0 -0.9739140498878504 0.2269172171322524
		outer loop
			vertex 2.3431458473205566 -1.9319806098937988 5.656854152679443
			vertex -2.3431458473205566 -1.9319806098937988 5.656854152679443
			vertex 0 -3.25 0
		endloop
	endfacet
endsolid exported
