{"asset":{"version":"2.0","generator":"Blockbench 5.0.7 glTF exporter"},"scenes":[{"nodes":[3],"name":"blockbench_export"}],"scene":0,"nodes":[{"rotation":[0,0.49999999999999994,0,0.8660254037844387],"translation":[-0.328125,-0.09375,0.3125],"name":"sphere","mesh":0},{"translation":[0,-0.0625,0],"name":"sphere","mesh":1},{"rotation":[0,-0.8064446042674825,0,0.5913096483635825],"translation":[0.28125,-0.09375,0.3125],"name":"sphere","mesh":2},{"rotation":[0,0.4265687399014583,0,0.904455145454368],"translation":[-0.046875,0,-0.09375],"name":"stone","children":[0,1,2]}],"bufferViews":[{"buffer":0,"byteOffset":0,"byteLength":1344,"target":34962,"byteStride":12},{"buffer":0,"byteOffset":1344,"byteLength":1344,"target":34962,"byteStride":12},{"buffer":0,"byteOffset":2688,"byteLength":896,"target":34962,"byteStride":8},{"buffer":0,"byteOffset":3584,"byteLength":288,"target":34963},{"buffer":0,"byteOffset":3872,"byteLength":1344,"target":34962,"byteStride":12},{"buffer":0,"byteOffset":5216,"byteLength":1344,"target":34962,"byteStride":12},{"buffer":0,"byteOffset":6560,"byteLength":896,"target":34962,"byteStride":8},{"buffer":0,"byteOffset":7456,"byteLength":288,"target":34963},{"buffer":0,"byteOffset":7744,"byteLength":1344,"target":34962,"byteStride":12},{"buffer":0,"byteOffset":9088,"byteLength":1344,"target":34962,"byteStride":12},{"buffer":0,"byteOffset":10432,"byteLength":896,"target":34962,"byteStride":8},{"buffer":0,"byteOffset":11328,"byteLength":288,"target":34963}],"buffers":[{"byteLength":11616,"uri":"data:application/octet-stream;base64,"}],"accessors":[{"bufferView":0,"componentType":5126,"count":112,"max":[0.125,0.24375000596046448,0.23588834702968597],"min":[-0.15625,0.015625,-0.22896234691143036],"type":"VEC3"},{"bufferView":1,"componentType":5126,"count":112,"max":[0.9360560178756714,0.9372891187667847,0.7363948225975037],"min":[-0.8942143321037292,-0.9688873291015625,-0.8453941941261292],"type":"VEC3"},{"bufferView":2,"componentType":5126,"count":112,"max":[0.9768875241279602,0.9006834030151367],"min":[0.19615162909030914,0],"type":"VEC2"},{"bufferView":3,"componentType":5123,"count":144,"max":[111],"min":[0],"type":"SCALAR"},{"bufferView":4,"componentType":5126,"count":112,"max":[0.34375,0.265625,0.328125],"min":[-0.375,0,-0.375],"type":"VEC3"},{"bufferView":5,"componentType":5126,"count":112,"max":[0.7628466486930847,0.9946150183677673,0.8764720559120178],"min":[-0.7833732962608337,-0.9877375960350037,-0.7342196106910706],"type":"VEC3"},{"bufferView":6,"componentType":5126,"count":112,"max":[0.9212090969085693,0.75],"min":[0.0009648767299950123,0.012085020542144775],"type":"VEC2"},{"bufferView":7,"componentType":5123,"count":144,"max":[111],"min":[0],"type":"SCALAR"},{"bufferView":8,"componentType":5126,"count":112,"max":[0.125,0.21875,0.1767076551914215],"min":[-0.15625,0.046875,-0.15625],"type":"VEC3"},{"bufferView":9,"componentType":5126,"count":112,"max":[0.8899069428443909,0.9832603931427002,0.7640547752380371],"min":[-0.8368108868598938,-0.9674990773200989,-0.8774724006652832],"type":"VEC3"},{"bufferView":10,"componentType":5126,"count":112,"max":[0.921875,0.9375],"min":[0,0],"type":"VEC2"},{"bufferView":11,"componentType":5123,"count":144,"max":[111],"min":[0],"type":"SCALAR"}],"materials":[{"pbrMetallicRoughness":{"metallicFactor":0,"roughnessFactor":1,"baseColorTexture":{"index":0}},"alphaMode":"MASK","alphaCutoff":0.05,"doubleSided":true}],"textures":[{"sampler":0,"source":0,"name":"texture"}],"samplers":[{"magFilter":9728,"minFilter":9728,"wrapS":33071,"wrapT":33071}],"images":[{"mimeType":"image/png","uri":"data:image/png;base64,"}],"meshes":[{"primitives":[{"mode":4,"attributes":{"POSITION":0,"NORMAL":1,"TEXCOORD_0":2},"indices":3,"material":0}]},{"primitives":[{"mode":4,"attributes":{"POSITION":4,"NORMAL":5,"TEXCOORD_0":6},"indices":7,"material":0}]},{"primitives":[{"mode":4,"attributes":{"POSITION":8,"NORMAL":9,"TEXCOORD_0":10},"indices":11,"material":0}]}]}