solid exported
	facet normal -0.008761656300246043 0.9190089201885024 -0.394139363668283
		outer loop
			vertex 1.4898585277817051 1.6891634464263916 5.278629820683826
			vertex -0.10791318887844781 1.4154260158538818 4.675878520618477
			vertex 0.5656101741235934 2.4000000953674316 6.956623009258511
		endloop
	endfacet
	facet normal 0.09555660598028355 0.612025778704131 -0.7850435537313398
		outer loop
			vertex 1.4898585277817051 1.6891634464263916 5.278629820683826
			vertex 3.214952354582495 0 4.1717263139410345
			vertex -0.01931200249571552 0 3.7780471055245757
		endloop
	endfacet
	facet normal 0.2173702393092976 0.5325046908246922 -0.8180396893258405
		outer loop
			vertex 1.4898585277817051 1.6891634464263916 5.278629820683826
			vertex -0.01931200249571552 0 3.7780471055245757
			vertex -0.10791318887844781 1.4154260158538818 4.675878520618477
		endloop
	endfacet
	facet normal 0.15445260854007903 -0.8061250504631946 -0.5712326975330432
		outer loop
			vertex 3.214952354582495 0 4.1717263139410345
			vertex 1.3066129573772844 -0.658296525478363 4.584730196529876
			vertex -0.30490486171088477 -0.658296525478363 4.149000358336241
		endloop
	endfacet
	facet normal 0.10307025075155883 -0.5218755607092477 -0.8467717653207502
		outer loop
			vertex 3.214952354582495 0 4.1717263139410345
			vertex -0.30490486171088477 -0.658296525478363 4.149000358336241
			vertex -0.01931200249571552 0 3.7780471055245757
		endloop
	endfacet
	facet normal 0.07730086761456315 -0.955138876647297 -0.2858921163358227
		outer loop
			vertex -0.30490486171088477 -0.658296525478363 4.149000358336241
			vertex 1.3066129573772844 -0.658296525478363 4.584730196529876
			vertex -0.6221939726213658 -1.25 6.040036303412154
		endloop
	endfacet
	facet normal -0.28140847870854124 0.9084528415615752 -0.30906747284313857
		outer loop
			vertex -0.10791318887844781 1.4154260158538818 4.675878520618477
			vertex -1.9037899029039336 0.9543149471282959 4.955679149870209
			vertex 0.5656101741235934 2.4000000953674316 6.956623009258511
		endloop
	endfacet
	facet normal -0.23522879751639272 0.5100732523653088 -0.8273407339424719
		outer loop
			vertex -0.10791318887844781 1.4154260158538818 4.675878520618477
			vertex -0.01931200249571552 0 3.7780471055245757
			vertex -2.934497028775505 0 4.606889975380504
		endloop
	endfacet
	facet normal -0.26772434810655754 0.5724164487390792 -0.7750245690582074
		outer loop
			vertex -0.10791318887844781 1.4154260158538818 4.675878520618477
			vertex -2.934497028775505 0 4.606889975380504
			vertex -1.9037899029039336 0.9543149471282959 4.955679149870209
		endloop
	endfacet
	facet normal -0.3278137333523492 -0.3518509570973771 -0.8767776572285898
		outer loop
			vertex -0.01931200249571552 0 3.7780471055245757
			vertex -0.30490486171088477 -0.658296525478363 4.149000358336241
			vertex -2.102286282323514 -0.658296525478363 4.821013734693937
		endloop
	endfacet
	facet normal -0.2283960616728538 -0.5500274498471291 -0.8033088095041618
		outer loop
			vertex -0.01931200249571552 0 3.7780471055245757
			vertex -2.102286282323514 -0.658296525478363 4.821013734693937
			vertex -2.934497028775505 0 4.606889975380504
		endloop
	endfacet
	facet normal -0.11757384894949471 -0.9419595596305298 -0.3144655435240242
		outer loop
			vertex -2.102286282323514 -0.658296525478363 4.821013734693937
			vertex -0.30490486171088477 -0.658296525478363 4.149000358336241
			vertex -0.6221939726213658 -1.25 6.040036303412154
		endloop
	endfacet
	facet normal -0.21888480959763176 0.8989763787187768 -0.3793822750644569
		outer loop
			vertex -1.9037899029039336 0.9543149471282959 4.955679149870209
			vertex -3.032649640796537 1.207582950592041 6.207114002248495
			vertex 0.5656101741235934 2.4000000953674316 6.956623009258511
		endloop
	endfacet
	facet normal -0.5416412970456381 0.7344503368466844 -0.40891002438251695
		outer loop
			vertex -1.9037899029039336 0.9543149471282959 4.955679149870209
			vertex -2.934497028775505 0 4.606889975380504
			vertex -3.9113174675603553 0 5.900784127873032
		endloop
	endfacet
	facet normal -0.5555609050112109 0.5601224798876039 -0.6145037740711486
		outer loop
			vertex -1.9037899029039336 0.9543149471282959 4.955679149870209
			vertex -3.9113174675603553 0 5.900784127873032
			vertex -3.032649640796537 1.207582950592041 6.207114002248495
		endloop
	endfacet
	facet normal -0.5235412533629062 -0.7761562713721006 -0.35140574616382636
		outer loop
			vertex -2.934497028775505 0 4.606889975380504
			vertex -2.102286282323514 -0.658296525478363 4.821013734693937
			vertex -3.032649640796537 -0.658296525478363 6.207114002248495
		endloop
	endfacet
	facet normal -0.476041686410451 -0.8026369814966317 -0.3593858493784499
		outer loop
			vertex -2.934497028775505 0 4.606889975380504
			vertex -3.032649640796537 -0.658296525478363 6.207114002248495
			vertex -3.9113174675603553 0 5.900784127873032
		endloop
	endfacet
	facet normal -0.2459018174649786 -0.9551388756285994 -0.1650515811204348
		outer loop
			vertex -3.032649640796537 -0.658296525478363 6.207114002248495
			vertex -2.102286282323514 -0.658296525478363 4.821013734693937
			vertex -0.6221939726213658 -1.25 6.040036303412154
		endloop
	endfacet
	facet normal -0.2623718228595434 0.9369172057303153 -0.23097007636457745
		outer loop
			vertex -3.032649640796537 1.207582950592041 6.207114002248495
			vertex -2.1674606601693025 1.7320928573608398 7.351942589676223
			vertex 0.5656101741235934 2.4000000953674316 6.956623009258511
		endloop
	endfacet
	facet normal -0.812953145793156 0.530735395749507 0.23963956777549525
		outer loop
			vertex -3.032649640796537 1.207582950592041 6.207114002248495
			vertex -3.9113174675603553 0 5.900784127873032
			vertex -3.286331113237 0 8.020987513070937
		endloop
	endfacet
	facet normal -0.7479382559295573 0.5960012582283601 0.2921829315809936
		outer loop
			vertex -3.032649640796537 1.207582950592041 6.207114002248495
			vertex -3.286331113237 0 8.020987513070937
			vertex -2.1674606601693025 1.7320928573608398 7.351942589676223
		endloop
	endfacet
	facet normal -0.6340816136491636 -0.7360276556109949 0.2370734008864252
		outer loop
			vertex -3.9113174675603553 0 5.900784127873032
			vertex -3.032649640796537 -0.658296525478363 6.207114002248495
			vertex -2.5510007909599897 -0.658296525478363 7.495342368546458
		endloop
	endfacet
	facet normal -0.5856199522802279 -0.7919906371418941 0.17262706094607674
		outer loop
			vertex -3.9113174675603553 0 5.900784127873032
			vertex -2.5510007909599897 -0.658296525478363 7.495342368546458
			vertex -3.286331113237 0 8.020987513070937
		endloop
	endfacet
	facet normal -0.231828443957822 -0.9688873269411035 0.08667710346463126
		outer loop
			vertex -2.5510007909599897 -0.658296525478363 7.495342368546458
			vertex -3.032649640796537 -0.658296525478363 6.207114002248495
			vertex -0.6221939726213658 -1.25 6.040036303412154
		endloop
	endfacet
	facet normal -0.008344498558459817 0.5343965550742789 0.8451926947557884
		outer loop
			vertex -2.1674606601693025 1.7320928573608398 7.351942589676223
			vertex -1.0270349218056936 1.204314947128296 7.696904134908961
			vertex 0.5656101741235934 2.4000000953674316 6.956623009258511
		endloop
	endfacet
	facet normal -0.26043397863283774 0.4896479276487406 0.8321172091254722
		outer loop
			vertex -2.1674606601693025 1.7320928573608398 7.351942589676223
			vertex -3.286331113237 0 8.020987513070937
			vertex -1.0709086033548605 0 8.714364951097643
		endloop
	endfacet
	facet normal 0.06644047699052166 0.6425204532525742 0.7633826891994463
		outer loop
			vertex -2.1674606601693025 1.7320928573608398 7.351942589676223
			vertex -1.0709086033548605 0 8.714364951097643
			vertex -1.0270349218056936 1.204314947128296 7.696904134908961
		endloop
	endfacet
	facet normal -0.17890009172417523 -0.7281578992312925 0.6616500819679181
		outer loop
			vertex -3.286331113237 0 8.020987513070937
			vertex -2.5510007909599897 -0.658296525478363 7.495342368546458
			vertex -0.9394830764908267 -0.658296525478363 7.931072182221061
		endloop
	endfacet
	facet normal -0.19166956668981674 -0.7669554504162404 0.6124068208974817
		outer loop
			vertex -3.286331113237 0 8.020987513070937
			vertex -0.9394830764908267 -0.658296525478363 7.931072182221061
			vertex -1.0709086033548605 0 8.714364951097643
		endloop
	endfacet
	facet normal -0.07730087068453546 -0.9551388737404025 0.2858921252174116
		outer loop
			vertex -0.9394830764908267 -0.658296525478363 7.931072182221061
			vertex -2.5510007909599897 -0.658296525478363 7.495342368546458
			vertex -0.6221939726213658 -1.25 6.040036303412154
		endloop
	endfacet
	facet normal 0.12290550411827958 0.3989032967362588 0.9087190968117572
		outer loop
			vertex -1.0270349218056936 1.204314947128296 7.696904134908961
			vertex 0.8578983441218029 1.6209816932678223 7.259058805863365
			vertex 0.5656101741235934 2.4000000953674316 6.956623009258511
		endloop
	endfacet
	facet normal 0.27632875020007397 0.6143377248109543 0.7390748146750541
		outer loop
			vertex -1.0270349218056936 1.204314947128296 7.696904134908961
			vertex -1.0709086033548605 0 8.714364951097643
			vertex 1.470972657951351 0 7.763994490425739
		endloop
	endfacet
	facet normal 0.14011951261911554 0.34239371533403673 0.9290495497459413
		outer loop
			vertex -1.0270349218056936 1.204314947128296 7.696904134908961
			vertex 1.470972657951351 0 7.763994490425739
			vertex 0.8578983441218029 1.6209816932678223 7.259058805863365
		endloop
	endfacet
	facet normal 0.24217355684224423 -0.7223623753415791 0.647722600390976
		outer loop
			vertex -1.0709086033548605 0 8.714364951097643
			vertex -0.9394830764908267 -0.658296525478363 7.931072182221061
			vertex 0.8578983441218029 -0.658296525478363 7.259058805863365
		endloop
	endfacet
	facet normal 0.2421735568422442 -0.7223623753415791 0.6477226003909761
		outer loop
			vertex -1.0709086033548605 0 8.714364951097643
			vertex 0.8578983441218029 -0.658296525478363 7.259058805863365
			vertex 1.470972657951351 0 7.763994490425739
		endloop
	endfacet
	facet normal 0.11757385269494837 -0.9419595558187104 0.3144655535416952
		outer loop
			vertex 0.8578983441218029 -0.658296525478363 7.259058805863365
			vertex -0.9394830764908267 -0.658296525478363 7.931072182221061
			vertex -0.6221939726213658 -1.25 6.040036303412154
		endloop
	endfacet
	facet normal 0.7004546369095264 0.4709869392797629 0.5362225327789056
		outer loop
			vertex 0.8578983441218029 1.6209816932678223 7.259058805863365
			vertex 1.7882618072138317 1.8154261112213135 5.872958562827839
			vertex 0.5656101741235934 2.4000000953674316 6.956623009258511
		endloop
	endfacet
	facet normal 0.6606309824049932 0.4394513860882464 0.608645368298924
		outer loop
			vertex 0.8578983441218029 1.6209816932678223 7.259058805863365
			vertex 1.470972657951351 0 7.763994490425739
			vertex 2.884862325424519 0 6.229341688177972
		endloop
	endfacet
	facet normal 0.6777843819889333 0.5128432528923749 0.526877717781505
		outer loop
			vertex 0.8578983441218029 1.6209816932678223 7.259058805863365
			vertex 2.884862325424519 0 6.229341688177972
			vertex 1.7882618072138317 1.8154261112213135 5.872958562827839
		endloop
	endfacet
	facet normal 0.5313547428470827 -0.7684157179525093 0.3566502792056115
		outer loop
			vertex 1.470972657951351 0 7.763994490425739
			vertex 0.8578983441218029 -0.658296525478363 7.259058805863365
			vertex 1.7882618072138317 -0.658296525478363 5.872958562827839
		endloop
	endfacet
	facet normal 0.39120314013857654 -0.8467929052519773 0.3604190321842524
		outer loop
			vertex 1.470972657951351 0 7.763994490425739
			vertex 1.7882618072138317 -0.658296525478363 5.872958562827839
			vertex 2.884862325424519 0 6.229341688177972
		endloop
	endfacet
	facet normal 0.2459018098539335 -0.9551388747591002 0.16505159749145182
		outer loop
			vertex 1.7882618072138317 -0.658296525478363 5.872958562827839
			vertex 0.8578983441218029 -0.658296525478363 7.259058805863365
			vertex -0.6221939726213658 -1.25 6.040036303412154
		endloop
	endfacet
	facet normal 0.18799121148721104 0.9372890738387859 -0.29351064114611225
		outer loop
			vertex 1.7882618072138317 1.8154261112213135 5.872958562827839
			vertex 1.4898585277817051 1.6891634464263916 5.278629820683826
			vertex 0.5656101741235934 2.4000000953674316 6.956623009258511
		endloop
	endfacet
	facet normal 0.8363459390521776 0.5315298538905845 0.13416961151462434
		outer loop
			vertex 1.7882618072138317 1.8154261112213135 5.872958562827839
			vertex 2.884862325424519 0 6.229341688177972
			vertex 3.214952354582495 0 4.1717263139410345
		endloop
	endfacet
	facet normal 0.49037793410974395 0.7692400555913421 -0.4096330292006359
		outer loop
			vertex 1.7882618072138317 1.8154261112213135 5.872958562827839
			vertex 3.214952354582495 0 4.1717263139410345
			vertex 1.4898585277817051 1.6891634464263916 5.278629820683826
		endloop
	endfacet
	facet normal 0.5520445816791313 -0.807864717819602 -0.20640101148242504
		outer loop
			vertex 2.884862325424519 0 6.229341688177972
			vertex 1.7882618072138317 -0.658296525478363 5.872958562827839
			vertex 1.3066129573772844 -0.658296525478363 4.584730196529876
		endloop
	endfacet
	facet normal 0.3360326936381186 -0.9403063345897251 0.05390756845514662
		outer loop
			vertex 2.884862325424519 0 6.229341688177972
			vertex 1.3066129573772844 -0.658296525478363 4.584730196529876
			vertex 3.214952354582495 0 4.1717263139410345
		endloop
	endfacet
	facet normal 0.23182843275764076 -0.9688873299956253 -0.08667709927705508
		outer loop
			vertex 1.3066129573772844 -0.658296525478363 4.584730196529876
			vertex 1.7882618072138317 -0.658296525478363 5.872958562827839
			vertex -0.6221939726213658 -1.25 6.040036303412154
		endloop
	endfacet
	facet normal 0.17573046716823737 0.9632302367990392 -0.2032395478859867
		outer loop
			vertex 2.138162452192562 3.1037793159484863 0.22329645167587753
			vertex 2.292183248636385 2.474149465560913 -2.6275874899519964
			vertex 1.2581213060538743 3.25 0.15536745971556032
		endloop
	endfacet
	facet normal 0.8978137122860222 0.3989761111964087 0.18640976563952533
		outer loop
			vertex 2.138162452192562 3.1037793159484863 0.22329645167587753
			vertex 3.382449996181765 0.4166666269302368 -0.018346725411120923
			vertex 4.161250171919582 0.4166666269302368 -3.7693169308042513
		endloop
	endfacet
	facet normal 0.7018284908714241 0.7026282514985832 -0.11726171411497893
		outer loop
			vertex 2.138162452192562 3.1037793159484863 0.22329645167587753
			vertex 4.161250171919582 0.4166666269302368 -3.7693169308042513
			vertex 2.292183248636385 2.474149465560913 -2.6275874899519964
		endloop
	endfacet
	facet normal 0.9764670493405969 0.19782797557702958 -0.0858847694947278
		outer loop
			vertex 3.382449996181765 0.4166666269302368 -0.018346725411120923
			vertex 3.5119786271673403 -0.32940274477005005 -0.26417556635804074
			vertex 3.2065455386328052 -0.32940274477005005 -3.7367976446022064
		endloop
	endfacet
	facet normal 0.6134250251091388 -0.779415394591505 0.12736318637511052
		outer loop
			vertex 3.382449996181765 0.4166666269302368 -0.018346725411120923
			vertex 3.2065455386328052 -0.32940274477005005 -3.7367976446022064
			vertex 4.161250171919582 0.4166666269302368 -3.7693169308042513
		endloop
	endfacet
	facet normal 0.15679194685503148 -0.9875353692376025 -0.01379057309037467
		outer loop
			vertex 3.2065455386328052 -0.32940274477005005 -3.7367976446022064
			vertex 3.5119786271673403 -0.32940274477005005 -0.26417556635804074
			vertex -0.8258975015132972 -1 -1.5625650720900495
		endloop
	endfacet
	facet normal -0.06751602774671366 0.9542974378462787 -0.29113224850114555
		outer loop
			vertex 2.292183248636385 2.474149465560913 -2.6275874899519964
			vertex 0.41382907675947633 1.4982235431671143 -5.390952246084144
			vertex 1.2581213060538743 3.25 0.15536745971556032
		endloop
	endfacet
	facet normal 0.49922250732411383 0.7205495145600549 -0.4812330882725067
		outer loop
			vertex 2.292183248636385 2.474149465560913 -2.6275874899519964
			vertex 4.161250171919582 0.4166666269302368 -3.7693169308042513
			vertex 0.3593429259214296 0.4166666269302368 -7.713346787051665
		endloop
	endfacet
	facet normal 0.15337863659358655 0.8944076254201903 -0.42013092414973363
		outer loop
			vertex 2.292183248636385 2.474149465560913 -2.6275874899519964
			vertex 0.3593429259214296 0.4166666269302368 -7.713346787051665
			vertex 0.41382907675947633 1.4982235431671143 -5.390952246084144
		endloop
	endfacet
	facet normal 0.48523005378841266 -0.6465796115835449 -0.5886311245465758
		outer loop
			vertex 4.161250171919582 0.4166666269302368 -3.7693169308042513
			vertex 3.2065455386328052 -0.32940274477005005 -3.7367976446022064
			vertex 0.5389618893985628 -0.32940274477005005 -5.935783908877808
		endloop
	endfacet
	facet normal 0.40303564614209975 -0.8286256417928256 -0.3885123083021289
		outer loop
			vertex 4.161250171919582 0.4166666269302368 -3.7693169308042513
			vertex 0.5389618893985628 -0.32940274477005005 -5.935783908877808
			vertex 0.3593429259214296 0.4166666269302368 -7.713346787051665
		endloop
	endfacet
	facet normal 0.09930649495277541 -0.9877376078126437 -0.12046841151418176
		outer loop
			vertex 0.5389618893985628 -0.32940274477005005 -5.935783908877808
			vertex 3.2065455386328052 -0.32940274477005005 -3.7367976446022064
			vertex -0.8258975015132972 -1 -1.5625650720900495
		endloop
	endfacet
	facet normal 0.09819323541750707 0.9445690682523965 -0.313284796661188
		outer loop
			vertex 0.41382907675947633 1.4982235431671143 -5.390952246084144
			vertex -2.928137905194098 1.7852606773376465 -5.572997952888373
			vertex 1.2581213060538743 3.25 0.15536745971556032
		endloop
	endfacet
	facet normal -0.0932227346657169 0.9034036145368428 -0.41853486232715803
		outer loop
			vertex 0.41382907675947633 1.4982235431671143 -5.390952246084144
			vertex 0.3593429259214296 0.4166666269302368 -7.713346787051665
			vertex -3.371990469145378 0.4166666269302368 -6.882244925898364
		endloop
	endfacet
	facet normal 0.09767702348912828 0.6712377562657472 -0.7347782479399003
		outer loop
			vertex 0.41382907675947633 1.4982235431671143 -5.390952246084144
			vertex -3.371990469145378 0.4166666269302368 -6.882244925898364
			vertex -2.928137905194098 1.7852606773376465 -5.572997952888373
		endloop
	endfacet
	facet normal -0.04010198005555888 -0.9227738549338351 -0.3832495842739732
		outer loop
			vertex 0.3593429259214296 0.4166666269302368 -7.713346787051665
			vertex 0.5389618893985628 -0.32940274477005005 -5.935783908877808
			vertex -2.928137905194098 -0.32940274477005005 -5.572997952888373
		endloop
	endfacet
	facet normal -0.1037184647021864 -0.8788664826314743 -0.4656567252674463
		outer loop
			vertex 0.3593429259214296 0.4166666269302368 -7.713346787051665
			vertex -2.928137905194098 -0.32940274477005005 -5.572997952888373
			vertex -3.371990469145378 0.4166666269302368 -6.882244925898364
		endloop
	endfacet
	facet normal -0.016380104473318623 -0.9875353697515002 -0.15654260016752986
		outer loop
			vertex -2.928137905194098 -0.32940274477005005 -5.572997952888373
			vertex 0.5389618893985628 -0.32940274477005005 -5.935783908877808
			vertex -0.8258975015132972 -1 -1.5625650720900495
		endloop
	endfacet
	facet normal 0.08269226904051914 0.9493397291763187 -0.3031766271472197
		outer loop
			vertex -2.928137905194098 1.7852606773376465 -5.572997952888373
			vertex -4.5945425068214325 2.9463717937469482 -2.3917166508863366
			vertex 1.2581213060538743 3.25 0.15536745971556032
		endloop
	endfacet
	facet normal -0.5145573529502949 0.673974846886841 -0.5300836125448937
		outer loop
			vertex -2.928137905194098 1.7852606773376465 -5.572997952888373
			vertex -3.371990469145378 0.4166666269302368 -6.882244925898364
			vertex -6.960580913023429 0.4166666269302368 -3.398765044753713
		endloop
	endfacet
	facet normal -0.5119363843637067 0.6851102854425972 -0.5182133104672033
		outer loop
			vertex -2.928137905194098 1.7852606773376465 -5.572997952888373
			vertex -6.960580913023429 0.4166666269302368 -3.398765044753713
			vertex -4.5945425068214325 2.9463717937469482 -2.3917166508863366
		endloop
	endfacet
	facet normal -0.41354393622308866 -0.8442565194827402 -0.34089931376288185
		outer loop
			vertex -3.371990469145378 0.4166666269302368 -6.882244925898364
			vertex -2.928137905194098 -0.32940274477005005 -5.572997952888373
			vertex -5.163773814163572 -0.32940274477005005 -2.8609547294749236
		endloop
	endfacet
	facet normal -0.2887967360784343 -0.909991051751317 -0.29751089217535387
		outer loop
			vertex -3.371990469145378 0.4166666269302368 -6.882244925898364
			vertex -5.163773814163572 -0.32940274477005005 -2.8609547294749236
			vertex -6.960580913023429 0.4166666269302368 -3.398765044753713
		endloop
	endfacet
	facet normal -0.12242606910392961 -0.9873332558220447 -0.10092026333497633
		outer loop
			vertex -5.163773814163572 -0.32940274477005005 -2.8609547294749236
			vertex -2.928137905194098 -0.32940274477005005 -5.572997952888373
			vertex -0.8258975015132972 -1 -1.5625650720900495
		endloop
	endfacet
	facet normal -0.0930662557581115 0.991049318604023 0.09570747167106415
		outer loop
			vertex -4.5945425068214325 2.9463717937469482 -2.3917166508863366
			vertex -4.8583405416594 2.631556987762451 0.6116675004221079
			vertex 1.2581213060538743 3.25 0.15536745971556032
		endloop
	endfacet
	facet normal -0.741604933372296 0.6676582100420613 0.06522758129275753
		outer loop
			vertex -4.5945425068214325 2.9463717937469482 -2.3917166508863366
			vertex -6.960580913023429 0.4166666269302368 -3.398765044753713
			vertex -6.528633172758661 0.4166666269302368 1.5122644429353373
		endloop
	endfacet
	facet normal -0.7998294804518572 0.60018240174288 -0.007340765509158503
		outer loop
			vertex -4.5945425068214325 2.9463717937469482 -2.3917166508863366
			vertex -6.528633172758661 0.4166666269302368 1.5122644429353373
			vertex -4.8583405416594 2.631556987762451 0.6116675004221079
		endloop
	endfacet
	facet normal -0.3920338340838889 -0.9193043673748716 0.0344811986301632
		outer loop
			vertex -6.960580913023429 0.4166666269302368 -3.398765044753713
			vertex -5.163773814163572 -0.32940274477005005 -2.8609547294749236
			vertex -4.8583405416594 -0.32940274477005005 0.6116675004221079
		endloop
	endfacet
	facet normal -0.39203381273341514 -0.9193043769664059 0.034481185654062135
		outer loop
			vertex -6.960580913023429 0.4166666269302368 -3.398765044753713
			vertex -4.8583405416594 -0.32940274477005005 0.6116675004221079
			vertex -6.528633172758661 0.4166666269302368 1.5122644429353373
		endloop
	endfacet
	facet normal -0.1567919429707429 -0.9875353697515001 0.013790580452876238
		outer loop
			vertex -4.8583405416594 -0.32940274477005005 0.6116675004221079
			vertex -5.163773814163572 -0.32940274477005005 -2.8609547294749236
			vertex -0.8258975015132972 -1 -1.5625650720900495
		endloop
	endfacet
	facet normal -0.09806554070866834 0.9946150309195343 0.03352745135632225
		outer loop
			vertex -4.8583405416594 2.631556987762451 0.6116675004221079
			vertex -2.1907568924251573 2.8204457759857178 2.81065376469771
			vertex 1.2581213060538743 3.25 0.15536745971556032
		endloop
	endfacet
	facet normal -0.4982866835387662 0.6215515262548639 0.6044700829802804
		outer loop
			vertex -4.8583405416594 2.631556987762451 0.6116675004221079
			vertex -6.528633172758661 0.4166666269302368 1.5122644429353373
			vertex -2.7561004736011014 0.4166666269302368 4.622100413537202
		endloop
	endfacet
	facet normal -0.5406974294277396 0.5836732500009552 0.6057819963019346
		outer loop
			vertex -4.8583405416594 2.631556987762451 0.6116675004221079
			vertex -2.7561004736011014 0.4166666269302368 4.622100413537202
			vertex -2.1907568924251573 2.8204457759857178 2.81065376469771
		endloop
	endfacet
	facet normal -0.24856788965989668 -0.920483277751944 0.30153696226012333
		outer loop
			vertex -6.528633172758661 0.4166666269302368 1.5122644429353373
			vertex -4.8583405416594 -0.32940274477005005 0.6116675004221079
			vertex -2.1907568924251573 -0.32940274477005005 2.81065376469771
		endloop
	endfacet
	facet normal -0.2485678896598966 -0.920483277751944 0.30153696226012316
		outer loop
			vertex -6.528633172758661 0.4166666269302368 1.5122644429353373
			vertex -2.1907568924251573 -0.32940274477005005 2.81065376469771
			vertex -2.7561004736011014 0.4166666269302368 4.622100413537202
		endloop
	endfacet
	facet normal -0.09930649495277538 -0.9877376078126439 0.12046841151418175
		outer loop
			vertex -2.1907568924251573 -0.32940274477005005 2.81065376469771
			vertex -4.8583405416594 -0.32940274477005005 0.6116675004221079
			vertex -0.8258975015132972 -1 -1.5625650720900495
		endloop
	endfacet
	facet normal 0.12705007863002862 0.939855254220912 0.31706525926605184
		outer loop
			vertex -2.1907568924251573 2.8204457759857178 2.81065376469771
			vertex 1.276342718197867 2.474149465560913 2.4478676570554083
			vertex 1.2581213060538743 3.25 0.15536745971556032
		endloop
	endfacet
	facet normal 0.1557755971981143 0.57085498991165 0.8061380426518407
		outer loop
			vertex -2.1907568924251573 2.8204457759857178 2.81065376469771
			vertex -2.7561004736011014 0.4166666269302368 4.622100413537202
			vertex 1.72019565008842 0.4166666269302368 3.757114933371131
		endloop
	endfacet
	facet normal 0.14115452942696166 0.5529780763074394 0.8211520236506615
		outer loop
			vertex -2.1907568924251573 2.8204457759857178 2.81065376469771
			vertex 1.72019565008842 0.4166666269302368 3.757114933371131
			vertex 1.276342718197867 2.474149465560913 2.4478676570554083
		endloop
	endfacet
	facet normal 0.040955917203150435 -0.9193043756987443 0.3914103699024732
		outer loop
			vertex -2.7561004736011014 0.4166666269302368 4.622100413537202
			vertex -2.1907568924251573 -0.32940274477005005 2.81065376469771
			vertex 1.276342718197867 -0.32940274477005005 2.4478676570554083
		endloop
	endfacet
	facet normal 0.09075484725401547 -0.8781724507968416 0.46965594253811954
		outer loop
			vertex -2.7561004736011014 0.4166666269302368 4.622100413537202
			vertex 1.276342718197867 -0.32940274477005005 2.4478676570554083
			vertex 1.72019565008842 0.4166666269302368 3.757114933371131
		endloop
	endfacet
	facet normal 0.016380112441707513 -0.9875353692376025 0.15654260257562153
		outer loop
			vertex 1.276342718197867 -0.32940274477005005 2.4478676570554083
			vertex -2.1907568924251573 -0.32940274477005005 2.81065376469771
			vertex -0.8258975015132972 -1 -1.5625650720900495
		endloop
	endfacet
	facet normal 0.1316105945686856 0.9393028097637447 0.3168420473472732
		outer loop
			vertex 1.276342718197867 2.474149465560913 2.4478676570554083
			vertex 2.138162452192562 3.1037793159484863 0.22329645167587753
			vertex 1.2581213060538743 3.25 0.15536745971556032
		endloop
	endfacet
	facet normal 0.8334049498640674 0.41327762913072236 0.36693022606779185
		outer loop
			vertex 1.276342718197867 2.474149465560913 2.4478676570554083
			vertex 1.72019565008842 0.4166666269302368 3.757114933371131
			vertex 3.382449996181765 0.4166666269302368 -0.018346725411120923
		endloop
	endfacet
	facet normal 0.8362376748647232 0.3492047844408519 0.4228032280629602
		outer loop
			vertex 1.276342718197867 2.474149465560913 2.4478676570554083
			vertex 3.382449996181765 0.4166666269302368 -0.018346725411120923
			vertex 2.138162452192562 3.1037793159484863 0.22329645167587753
		endloop
	endfacet
	facet normal 0.4135438166309973 -0.8442566178696899 0.34089921517876937
		outer loop
			vertex 1.72019565008842 0.4166666269302368 3.757114933371131
			vertex 1.276342718197867 -0.32940274477005005 2.4478676570554083
			vertex 3.5119786271673403 -0.32940274477005005 -0.26417556635804074
		endloop
	endfacet
	facet normal 0.9149089341462094 0.026114780165727908 0.40281467261799525
		outer loop
			vertex 1.72019565008842 0.4166666269302368 3.757114933371131
			vertex 3.5119786271673403 -0.32940274477005005 -0.26417556635804074
			vertex 3.382449996181765 0.4166666269302368 -0.018346725411120923
		endloop
	endfacet
	facet normal 0.12242607592235151 -0.9873332544020657 0.10092026895564955
		outer loop
			vertex 3.5119786271673403 -0.32940274477005005 -0.26417556635804074
			vertex 1.276342718197867 -0.32940274477005005 2.4478676570554083
			vertex -0.8258975015132972 -1 -1.5625650720900495
		endloop
	endfacet
	facet normal -0.10823077401488204 0.746684624982863 0.6563140790584496
		outer loop
			vertex 4.718700342427343 1.4053864479064941 -0.9237320466528057
			vertex 6.1646206402590416 1.4979791641235352 -0.790631876778638
			vertex 5.258744897952487 2 -1.5111632312172971
		endloop
	endfacet
	facet normal 0.0218813878627872 0.6304616005658904 0.7759119634836764
		outer loop
			vertex 4.718700342427343 1.4053864479064941 -0.9237320466528057
			vertex 3.8329455081327497 0.16666662693023682 0.10775975104101998
			vertex 6.378900718950284 0.16666662693023682 0.03596161404740905
		endloop
	endfacet
	facet normal -0.11118666506820066 0.511234768996146 0.8522185966525662
		outer loop
			vertex 4.718700342427343 1.4053864479064941 -0.9237320466528057
			vertex 6.378900718950284 0.16666662693023682 0.03596161404740905
			vertex 6.1646206402590416 1.4979791641235352 -0.790631876778638
		endloop
	endfacet
	facet normal -0.09894389293159796 -0.905457179440382 0.41274374889440624
		outer loop
			vertex 3.8329455081327497 0.16666662693023682 0.10775975104101998
			vertex 5.166811852855115 -0.3160841464996338 -0.631517889632019
			vertex 6.470980129918011 -0.3160841464996338 -0.31887963232067573
		endloop
	endfacet
	facet normal 0.022775236525425378 -0.5892800738096029 0.8076077533135501
		outer loop
			vertex 3.8329455081327497 0.16666662693023682 0.10775975104101998
			vertex 6.470980129918011 -0.3160841464996338 -0.31887963232067573
			vertex 6.378900718950284 0.16666662693023682 0.03596161404740905
		endloop
	endfacet
	facet normal -0.06042876649922028 -0.9658182849573108 0.2520781716482042
		outer loop
			vertex 6.470980129918011 -0.3160841464996338 -0.31887963232067573
			vertex 5.166811852855115 -0.3160841464996338 -0.631517889632019
			vertex 6.114448577350159 -0.75 -2.0668636981451938
		endloop
	endfacet
	facet normal 0.46717237542647666 0.8837110021304434 0.028369637854417287
		outer loop
			vertex 6.1646206402590416 1.4979791641235352 -0.790631876778638
			vertex 7.38052939951743 0.8664977550506592 -1.1428363912437312
			vertex 5.258744897952487 2 -1.5111632312172971
		endloop
	endfacet
	facet normal 0.37408890099163633 0.5318976165492832 0.7596989006600321
		outer loop
			vertex 6.1646206402590416 1.4979791641235352 -0.790631876778638
			vertex 6.378900718950284 0.16666662693023682 0.03596161404740905
			vertex 8.2364083825105 0.16666662693023682 -0.8787073420891244
		endloop
	endfacet
	facet normal 0.5107181919566351 0.7693976607208839 0.3836589215459186
		outer loop
			vertex 6.1646206402590416 1.4979791641235352 -0.790631876778638
			vertex 8.2364083825105 0.16666662693023682 -0.8787073420891244
			vertex 7.38052939951743 0.8664977550506592 -1.1428363912437312
		endloop
	endfacet
	facet normal 0.48467808372079096 -0.45614202941468973 0.7463387998504368
		outer loop
			vertex 6.378900718950284 0.16666662693023682 0.03596161404740905
			vertex 6.470980129918011 -0.3160841464996338 -0.31887963232067573
			vertex 7.566297033873742 -0.3160841464996338 -1.0301867467071157
		endloop
	endfacet
	facet normal 0.32922268845455294 -0.666788515534632 0.6685846969216975
		outer loop
			vertex 6.378900718950284 0.16666662693023682 0.03596161404740905
			vertex 7.566297033873742 -0.3160841464996338 -1.0301867467071157
			vertex 8.2364083825105 0.16666662693023682 -0.8787073420891244
		endloop
	endfacet
	facet normal 0.1377253557996511 -0.9674990735938441 0.21207845002478015
		outer loop
			vertex 7.566297033873742 -0.3160841464996338 -1.0301867467071157
			vertex 6.470980129918011 -0.3160841464996338 -0.31887963232067573
			vertex 6.114448577350159 -0.75 -2.0668636981451938
		endloop
	endfacet
	facet normal 0.4137778579339184 0.8658896723863707 0.2811102266696138
		outer loop
			vertex 7.38052939951743 0.8664977550506592 -1.1428363912437312
			vertex 7.811140751051516 1.05222749710083 -2.3487651550323694
			vertex 5.258744897952487 2 -1.5111632312172971
		endloop
	endfacet
	facet normal 0.6243600591308339 0.7799338573834725 0.043332374376197455
		outer loop
			vertex 7.38052939951743 0.8664977550506592 -1.1428363912437312
			vertex 8.2364083825105 0.16666662693023682 -0.8787073420891244
			vertex 8.338637878747528 0.16666662693023682 -2.351694115473204
		endloop
	endfacet
	facet normal 0.8021115362633069 0.47659923543950156 0.35981974955774765
		outer loop
			vertex 7.38052939951743 0.8664977550506592 -1.1428363912437312
			vertex 8.338637878747528 0.16666662693023682 -2.351694115473204
			vertex 7.811140751051516 1.05222749710083 -2.3487651550323694
		endloop
	endfacet
	facet normal 0.5655511698569451 -0.8179997204161442 0.10501586390898685
		outer loop
			vertex 8.2364083825105 0.16666662693023682 -0.8787073420891244
			vertex 7.566297033873742 -0.3160841464996338 -1.0301867467071157
			vertex 7.811140751051516 -0.3160841464996338 -2.3487651550323694
		endloop
	endfacet
	facet normal 0.67452662999769 -0.7367647301089653 0.04681407791918004
		outer loop
			vertex 8.2364083825105 0.16666662693023682 -0.8787073420891244
			vertex 7.811140751051516 -0.3160841464996338 -2.3487651550323694
			vertex 8.338637878747528 0.16666662693023682 -2.351694115473204
		endloop
	endfacet
	facet normal 0.2548634674106314 -0.9658182839816024 0.047324996632466414
		outer loop
			vertex 7.811140751051516 -0.3160841464996338 -2.3487651550323694
			vertex 7.566297033873742 -0.3160841464996338 -1.0301867467071157
			vertex 6.114448577350159 -0.75 -2.0668636981451938
		endloop
	endfacet
	facet normal 0.4091366862808702 0.8759463407607859 0.2555879106039609
		outer loop
			vertex 7.811140751051516 1.05222749710083 -2.3487651550323694
			vertex 6.828357367351995 1.803534746170044 -3.350424811256108
			vertex 5.258744897952487 2 -1.5111632312172971
		endloop
	endfacet
	facet normal 0.7872675622182632 0.4702663892067845 -0.39882240240654265
		outer loop
			vertex 7.811140751051516 1.05222749710083 -2.3487651550323694
			vertex 8.338637878747528 0.16666662693023682 -2.351694115473204
			vertex 7.45460927217252 0.16666662693023682 -4.096749162105404
		endloop
	endfacet
	facet normal 0.7784858527520233 0.4814505580118746 -0.4026973271018938
		outer loop
			vertex 7.811140751051516 1.05222749710083 -2.3487651550323694
			vertex 7.45460927217252 0.16666662693023682 -4.096749162105404
			vertex 6.828357367351995 1.803534746170044 -3.350424811256108
		endloop
	endfacet
	facet normal 0.6172923416505368 -0.6769416026271545 -0.4008743338905305
		outer loop
			vertex 8.338637878747528 0.16666662693023682 -2.351694115473204
			vertex 7.811140751051516 -0.3160841464996338 -2.3487651550323694
			vertex 7.0620852518565425 -0.3160841464996338 -3.502209474195352
		endloop
	endfacet
	facet normal 0.5486891310420218 -0.788465620023101 -0.27796079492967707
		outer loop
			vertex 8.338637878747528 0.16666662693023682 -2.351694115473204
			vertex 7.0620852518565425 -0.3160841464996338 -3.502209474195352
			vertex 7.45460927217252 0.16666662693023682 -4.096749162105404
		endloop
	endfacet
	facet normal 0.22255930673250435 -0.9641462241817782 -0.14453170372886212
		outer loop
			vertex 7.0620852518565425 -0.3160841464996338 -3.502209474195352
			vertex 7.811140751051516 -0.3160841464996338 -2.3487651550323694
			vertex 6.114448577350159 -0.75 -2.0668636981451938
		endloop
	endfacet
	facet normal -0.14746550621391588 0.9622787247669088 -0.22863416266613726
		outer loop
			vertex 6.828357367351995 1.803534746170044 -3.350424811256108
			vertex 5.89407681599908 1.5998308658599854 -3.6051800719946945
			vertex 5.258744897952487 2 -1.5111632312172971
		endloop
	endfacet
	facet normal 0.2057569357157924 0.4700659405190361 -0.8583135178760739
		outer loop
			vertex 6.828357367351995 1.803534746170044 -3.350424811256108
			vertex 7.45460927217252 0.16666662693023682 -4.096749162105404
			vertex 5.61023688654746 0.16666662693023682 -4.538886449333624
		endloop
	endfacet
	facet normal 0.11502993110158272 0.5261545232201505 -0.842573161598292
		outer loop
			vertex 6.828357367351995 1.803534746170044 -3.350424811256108
			vertex 5.61023688654746 0.16666662693023682 -4.538886449333624
			vertex 5.89407681599908 1.5998308658599854 -3.6051800719946945
		endloop
	endfacet
	facet normal 0.1363220012745099 -0.8111935636248223 -0.568666259155732
		outer loop
			vertex 7.45460927217252 0.16666662693023682 -4.096749162105404
			vertex 7.0620852518565425 -0.3160841464996338 -3.502209474195352
			vertex 5.757917057245323 -0.3160841464996338 -3.8148477139810506
		endloop
	endfacet
	facet normal 0.13632200849203374 -0.8111935769127098 -0.568666238470565
		outer loop
			vertex 7.45460927217252 0.16666662693023682 -4.096749162105404
			vertex 5.757917057245323 -0.3160841464996338 -3.8148477139810506
			vertex 5.61023688654746 0.16666662693023682 -4.538886449333624
		endloop
	endfacet
	facet normal 0.06042876838236623 -0.9658182832605593 -0.25207817769774676
		outer loop
			vertex 5.757917057245323 -0.3160841464996338 -3.8148477139810506
			vertex 7.0620852518565425 -0.3160841464996338 -3.502209474195352
			vertex 6.114448577350159 -0.75 -2.0668636981451938
		endloop
	endfacet
	facet normal 0.024013552206100734 0.9832604163671489 -0.18061645250625943
		outer loop
			vertex 5.89407681599908 1.5998308658599854 -3.6051800719946945
			vertex 4.662600153289593 1.7220532894134521 -3.1035405995946106
			vertex 5.258744897952487 2 -1.5111632312172971
		endloop
	endfacet
	facet normal -0.45575986464289864 0.5474920712740287 -0.7018086474764761
		outer loop
			vertex 5.89407681599908 1.5998308658599854 -3.6051800719946945
			vertex 5.61023688654746 0.16666662693023682 -4.538886449333624
			vertex 4.061224842318127 0.16666662693023682 -3.5329462658566975
		endloop
	endfacet
	facet normal -0.31990949262322005 0.36506161166189166 -0.8742928206387013
		outer loop
			vertex 5.89407681599908 1.5998308658599854 -3.6051800719946945
			vertex 4.061224842318127 0.16666662693023682 -3.5329462658566975
			vertex 4.662600153289593 1.7220532894134521 -3.1035405995946106
		endloop
	endfacet
	facet normal -0.3129331628345615 -0.8184555575880654 -0.48187481346462485
		outer loop
			vertex 5.61023688654746 0.16666662693023682 -4.538886449333624
			vertex 5.757917057245323 -0.3160841464996338 -3.8148477139810506
			vertex 4.662600153289593 -0.3160841464996338 -3.1035405995946106
		endloop
	endfacet
	facet normal -0.3129331628345614 -0.8184555575880655 -0.48187481346462485
		outer loop
			vertex 5.61023688654746 0.16666662693023682 -4.538886449333624
			vertex 4.662600153289593 -0.3160841464996338 -3.1035405995946106
			vertex 4.061224842318127 0.16666662693023682 -3.5329462658566975
		endloop
	endfacet
	facet normal -0.13772536042819297 -0.967499071372632 -0.21207845715210963
		outer loop
			vertex 4.662600153289593 -0.3160841464996338 -3.1035405995946106
			vertex 5.757917057245323 -0.3160841464996338 -3.8148477139810506
			vertex 6.114448577350159 -0.75 -2.0668636981451938
		endloop
	endfacet
	facet normal -0.523321892127596 0.8508152014943485 0.04740981044176379
		outer loop
			vertex 4.662600153289593 1.7220532894134521 -3.1035405995946106
			vertex 4.41775635366014 1.4979791641235352 -1.7849622087950017
			vertex 5.258744897952487 2 -1.5111632312172971
		endloop
	endfacet
	facet normal -0.9203417664544238 0.3806510534829438 -0.08986550173384625
		outer loop
			vertex 4.662600153289593 1.7220532894134521 -3.1035405995946106
			vertex 4.061224842318127 0.16666662693023682 -3.5329462658566975
			vertex 3.8902593584044673 0.16666662693023682 -1.782033263291538
		endloop
	endfacet
	facet normal -0.9241824785101774 0.36594186121061983 -0.10942257823910477
		outer loop
			vertex 4.662600153289593 1.7220532894134521 -3.1035405995946106
			vertex 3.8902593584044673 0.16666662693023682 -1.782033263291538
			vertex 4.41775635366014 1.4979791641235352 -1.7849622087950017
		endloop
	endfacet
	facet normal -0.574949624735521 -0.8111935657994135 -0.10676107821728058
		outer loop
			vertex 4.061224842318127 0.16666662693023682 -3.5329462658566975
			vertex 4.662600153289593 -0.3160841464996338 -3.1035405995946106
			vertex 4.41775635366014 -0.3160841464996338 -1.7849622087950017
		endloop
	endfacet
	facet normal -0.6738612355521372 -0.7359222958032188 -0.06579825043165766
		outer loop
			vertex 4.061224842318127 0.16666662693023682 -3.5329462658566975
			vertex 4.41775635366014 -0.3160841464996338 -1.7849622087950017
			vertex 3.8902593584044673 0.16666662693023682 -1.782033263291538
		endloop
	endfacet
	facet normal -0.2548634635041913 -0.9658182842362675 -0.04732501247290051
		outer loop
			vertex 4.41775635366014 -0.3160841464996338 -1.7849622087950017
			vertex 4.662600153289593 -0.3160841464996338 -3.1035405995946106
			vertex 6.114448577350159 -0.75 -2.0668636981451938
		endloop
	endfacet
	facet normal -0.5575447318924267 0.781898123740106 0.27888921820447676
		outer loop
			vertex 4.41775635366014 1.4979791641235352 -1.7849622087950017
			vertex 4.718700342427343 1.4053864479064941 -0.9237320466528057
			vertex 5.258744897952487 2 -1.5111632312172971
		endloop
	endfacet
	facet normal -0.9293343988960832 0.3681618982114967 -0.02818495580559581
		outer loop
			vertex 4.41775635366014 1.4979791641235352 -1.7849622087950017
			vertex 3.8902593584044673 0.16666662693023682 -1.782033263291538
			vertex 3.8329455081327497 0.16666662693023682 0.10775975104101998
		endloop
	endfacet
	facet normal -0.6401621619577217 0.7073513728991191 0.29974396016491667
		outer loop
			vertex 4.41775635366014 1.4979791641235352 -1.7849622087950017
			vertex 3.8329455081327497 0.16666662693023682 0.10775975104101998
			vertex 4.718700342427343 1.4053864479064941 -0.9237320466528057
		endloop
	endfacet
	facet normal -0.6172924176007026 -0.6769415041612977 0.40087438321314534
		outer loop
			vertex 3.8902593584044673 0.16666662693023682 -1.782033263291538
			vertex 4.41775635366014 -0.3160841464996338 -1.7849622087950017
			vertex 5.166811852855115 -0.3160841464996338 -0.631517889632019
		endloop
	endfacet
	facet normal -0.3454259614108365 -0.9383875298435543 -0.010476116528167491
		outer loop
			vertex 3.8902593584044673 0.16666662693023682 -1.782033263291538
			vertex 5.166811852855115 -0.3160841464996338 -0.631517889632019
			vertex 3.8329455081327497 0.16666662693023682 0.10775975104101998
		endloop
	endfacet
	facet normal -0.22255929891050816 -0.9641462267488478 0.14453169864919857
		outer loop
			vertex 5.166811852855115 -0.3160841464996338 -0.631517889632019
			vertex 4.41775635366014 -0.3160841464996338 -1.7849622087950017
			vertex 6.114448577350159 -0.75 -2.0668636981451938
		endloop
	endfacet
endsolid exported
