# Made in Blockbench 5.0.7
mtllib stone1.mtl

o sphere
v 0 -0.203125 0
v -0.21875 0.359375 0
v 0.13082160940672624 0.17925905086269994 0.3535533905932738
v 0.2852317811865476 -0.046875 0.5
v 0.14644660940672627 -0.12074878220871643 0.35355339059327384
v 0.3379283905932738 0.17925905086269994 0.14644660940672627
v 0.578125 -0.046875 0.20710678118654757
v 0.35355339059327384 -0.12074878220871643 0.1464466094067263
v 0.3379283905932738 0.25738405086269994 -0.1464466094067262
v 0.578125 -0.046875 -0.20710678118654752
v 0.35355339059327384 -0.12074878220871643 -0.14644660940672624
v -0.0879283905932737 0.27300905086269994 -0.2910533905932738
v 0.2071067811865476 -0.046875 -0.5
v 0.1464466094067263 -0.12074878220871643 -0.35355339059327384
v -0.2401966094067262 0.21050905086269994 -0.3535533905932738
v -0.2071067811865475 -0.046875 -0.5000000000000001
v -0.1464466094067262 -0.12074878220871643 -0.35355339059327384
v -0.4473033905932737 0.22613405086269994 -0.14644660940672646
v -0.4999999999999999 -0.046875 -0.20710678118654785
v -0.35355339059327373 -0.12074878220871643 -0.1464466094067265
v -0.44730339059327373 0.22613405086269994 0.14644660940672632
v -0.49999999999999994 -0.046875 0.20710678118654766
v -0.3535533905932738 -0.12074878220871643 0.14644660940672635
v -0.2401966094067265 0.22613405086269994 0.3535533905932737
v -0.20710678118654788 -0.046875 0.4999999999999999
v -0.1464466094067265 -0.12074878220871643 0.35355339059327373
vt 0.29082158400395525 0.7515638490973773
vt 0.2701516044280068 0.6813183955530641
vt 0.4174480502592447 0.7135706187016203
vt 0.005838903736395951 0.609375
vt 0.005838903736395951 0.5317434839282547
vt 0.109375 0.5298655947517206
vt 0.07905030004869454 0.6080471260150297
vt 0.062369066985489205 0.7415854149225037
vt 0.1048977613893178 0.7743980271389947
vt 0.061645794767161394 0.8334802610323699
vt 0.0012005117399428444 0.8251417285465391
vt 0.07003989350734369 0.8300134622879952
vt 0.11886037497353674 0.7754423749988022
vt 0.16208814505982905 0.8632383540708429
vt 0.27015160442800684 0.6813183955530641
vt 0.30861920447546665 0.6160236681640067
vt 0.4174472079979366 0.7135704342789786
vt 0.27015160442800684 0.6813183955530641
vt 0.1875 0.6671558971794256
vt 0.22315956075328658 0.5699363239230679
vt 0.3079349831237395 0.6171850623393562
vt 0.0012004126895333589 0.825141714882362
vt 0.06164579476716141 0.83348026103237
vt 0.06998160027686126 0.9062261016352532
vt 0.01298922183873416 0.9280216141635594
vt 0.07275153021631275 0.9031851098358958
vt 0.07003989350734369 0.8300134622879952
vt 0.16208814505982905 0.8632383540708429
vt 0.30861920447546665 0.6160236681640067
vt 0.4201254544754667 0.6309674181640066
vt 0.4174473294754667 0.7135705431640067
vt 0.38890501749589607 1
vt 0.3163509467564667 0.9339863990118177
vt 0.4233865532435333 0.8838993790471021
vt 0.4949137449868898 0.9765289560679599
vt 0.01298931523078875 0.9280215784477717
vt 0.06998160027686127 0.9062261016352532
vt 0.12547720755982905 0.953993041570843
vt 0.11040101663727914 0.9947559179751781
vt 0.12547720755982905 0.953993041570843
vt 0.07275153021631277 0.9031851098358958
vt 0.16208814505982905 0.8632383540708429
vt 0.4201254544754667 0.6309674181640066
vt 0.46412034544278036 0.6296165139078375
vt 0.4174473612369388 0.7135695635245737
vt 0.4971459282435333 0.9794196915471021
vt 0.4233865532435333 0.8838993790471021
vt 0.5269396782435333 0.8838993790471021
vt 0.5352115532435333 0.9577931290471021
vt 0.11031158255982904 0.9949977290708429
vt 0.12547720755982905 0.953993041570843
vt 0.19869908255982904 0.953993041570843
vt 0.21386470755982906 0.9949977290708429
vt 0.19869908255982904 0.953993041570843
vt 0.12547720755982905 0.953993041570843
vt 0.16208814505982905 0.8632383540708429
vt 0.46412034544278036 0.6296165139078375
vt 0.49135872060700647 0.697697684462812
vt 0.41744800245089775 0.7135684101407004
vt 0.4267765625 0.6056453125
vt 0.3950390625 0.53125
vt 0.4985921875 0.53125
vt 0.5 0.609375
vt 0.21623135024417986 0.9940430124629366
vt 0.19869908255982907 0.953993041570843
vt 0.25142475990334534 0.9031851098358958
vt 0.29079798291594366 0.9221885276393721
vt 0.25142475990334534 0.9031851098358958
vt 0.19869908255982904 0.953993041570843
vt 0.16208814505982905 0.8632383540708429
vt 0.49135872060700647 0.697697684462812
vt 0.4701371738644015 0.7677768463611042
vt 0.41744760060105734 0.7135684964292488
vt 0.1430765625 0.546875
vt 0.1279109375 0.484375
vt 0.2314640625 0.484375
vt 0.2162984375 0.546875
vt 0.2918396888586247 0.9198588645466081
vt 0.25142475990334534 0.9031851098358958
vt 0.2541363966123144 0.8300134622879952
vt 0.29567458731046664 0.8163767730953349
vt 0.2541363966123144 0.8300134622879952
vt 0.25142475990334534 0.9031851098358958
vt 0.16208814505982905 0.8632383540708429
vt 0.444697465122918 0.7840844842882239
vt 0.3725997917406013 0.796875
vt 0.4174473581182623 0.7135713176232837
vt 0.265625 0.5625
vt 0.265625 0.4913532576276657
vt 0.3691578502584873 0.4893042055006389
vt 0.33883410103001915 0.5610510950021297
vt 0.2948081698367001 0.8139763976751235
vt 0.2541363966123144 0.8300134622879952
vt 0.20531591514612135 0.7754423749988022
vt 0.22576441180907691 0.7367999169657218
vt 0.20531591514612135 0.7754423749988022
vt 0.2541363966123144 0.8300134622879952
vt 0.16208814505982905 0.8632383540708429
vt 0.3725997917406013 0.796875
vt 0.29082158400395525 0.7515638490973773
vt 0.41744767353935797 0.7135707317333259
vt 0.0007281249999999961 0.703125
vt 0.009000000000000001 0.625
vt 0.132084375 0.625
vt 0.09348125 0.6927984375
vt 0.22347492443040834 0.7356726508304545
vt 0.20531591514612132 0.7754423749988022
vt 0.1322948810462329 0.770022821742439
vt 0.10072815860341396 0.7265625
vt 0.1322948810462329 0.770022821742439
vt 0.20531591514612135 0.7754423749988022
vt 0.16208814505982905 0.8632383540708429
vn 0.2408474644007113 0.9402047637528201 0.24084746440071134
vn 0.5150221888315898 0.6852038310037655 0.5150221888315898
vn 0.24319561682973515 -0.9389950925908024 0.24319561682973517
vn 0.16045471131578742 -0.9739140471484816 0.16045471131578742
vn 0.23780129662664748 0.9385012837102589 0.25033154774594735
vn 0.6854718311165178 0.7280991476068135 0
vn 0.31248147552538985 -0.9499238535027297 0
vn 0.22691722888944627 -0.9739140471484816 0
vn 0.1151053363846868 0.9652331762584025 -0.23468207640525923
vn 0.5205526662719026 0.5424142827987047 -0.6594025079215122
vn 0.24319561682973517 -0.9389950925908024 -0.24319561682973512
vn 0.16045471131578745 -0.9739140471484816 -0.16045471131578742
vn -0.2202352924554769 0.903711415984055 -0.36715404475117086
vn 2.6306545530855075e-16 0.5468673149963216 -0.837219290143696
vn 0 -0.8928352680630942 -0.4503833745851451
vn 0 -0.9739140471484816 -0.22691722888944627
vn -0.28946005995952784 0.8883328049696477 -0.35647959451136113
vn -0.675125920127546 0.29733816429087684 -0.6751259201275462
vn -0.3184691383028367 -0.8928352680630943 -0.3184691383028369
vn -0.16045471131578734 -0.9739140471484815 -0.16045471131578748
vn -0.5036401360007859 0.8639135451010767 -9.545336648260693e-17
vn -0.9818762431043052 0.18952319970751771 -1.3555893796678374e-16
vn -0.450383374585145 -0.8928352680630941 -7.22175832233575e-17
vn -0.22691722888944632 -0.9739140471484815 -4.3006924710956934e-17
vn -0.3174822475371926 0.8935379370779206 0.31748224753719245
vn -0.6784689198447806 0.2817088028608864 0.6784689198447803
vn -0.3184691383028369 -0.8928352680630941 0.3184691383028368
vn -0.16045471131578742 -0.9739140471484815 0.16045471131578737
vn 0.11711233888345789 0.9269506426371851 0.35643681936039673
vn -1.8196789253646272e-16 0.47270228450095353 0.881222191179716
vn -1.8054395805839376e-16 -0.8928352680630941 0.45038337458514494
vn -8.601384942191389e-17 -0.9739140471484815 0.22691722888944632
usemtl m_eb1c4a10-f8cb-ce30-5af2-e55f55151594
f 3/1/1 6/2/1 2/3/1
f 3/4/2 4/5/2 7/6/2 6/7/2
f 4/8/3 5/9/3 8/10/3 7/11/3
f 8/12/4 5/13/4 1/14/4
f 6/15/5 9/16/5 2/17/5
f 6/18/6 7/19/6 10/20/6 9/21/6
f 7/22/7 8/23/7 11/24/7 10/25/7
f 11/26/8 8/27/8 1/28/8
f 9/29/9 12/30/9 2/31/9
f 9/32/10 10/33/10 13/34/10 12/35/10
f 10/36/11 11/37/11 14/38/11 13/39/11
f 14/40/12 11/41/12 1/42/12
f 12/43/13 15/44/13 2/45/13
f 12/46/14 13/47/14 16/48/14 15/49/14
f 13/50/15 14/51/15 17/52/15 16/53/15
f 17/54/16 14/55/16 1/56/16
f 15/57/17 18/58/17 2/59/17
f 15/60/18 16/61/18 19/62/18 18/63/18
f 16/64/19 17/65/19 20/66/19 19/67/19
f 20/68/20 17/69/20 1/70/20
f 18/71/21 21/72/21 2/73/21
f 18/74/22 19/75/22 22/76/22 21/77/22
f 19/78/23 20/79/23 23/80/23 22/81/23
f 23/82/24 20/83/24 1/84/24
f 21/85/25 24/86/25 2/87/25
f 21/88/26 22/89/26 25/90/26 24/91/26
f 22/92/27 23/93/27 26/94/27 25/95/27
f 26/96/28 23/97/28 1/98/28
f 24/99/29 3/100/29 2/101/29
f 24/102/30 25/103/30 4/104/30 3/105/30
f 25/106/31 26/107/31 5/108/31 4/109/31
f 5/110/32 26/111/32 1/112/32