solid exported
	facet normal -0.14836476149223718 0.9062383392502441 -0.39587873145738894
		outer loop
			vertex 4.209210195360262 3.21008038520813 -7.800269473982352
			vertex 1.660635563227903 3.21008038520813 -6.845131858860983
			vertex 3.002757613941877 3.75 -6.112149220410758
		endloop
	endfacet
	facet normal -0.367865263993742 0.4126851264979616 -0.8332863456904693
		outer loop
			vertex 4.209210195360262 3.21008038520813 -7.800269473982352
			vertex 5.206402663529053 -0.07142877578735352 -9.865660923951491
			vertex 1.2486206542788922 -0.07142877578735352 -8.118445778530988
		endloop
	endfacet
	facet normal -0.3249999931603309 0.3772993295817539 -0.8671909941546581
		outer loop
			vertex 4.209210195360262 3.21008038520813 -7.800269473982352
			vertex 1.2486206542788922 -0.07142877578735352 -8.118445778530988
			vertex 1.660635563227903 3.21008038520813 -6.845131858860983
		endloop
	endfacet
	facet normal -0.1159093608827503 -0.8803079018558486 -0.4600250188738718
		outer loop
			vertex 5.206402663529053 -0.07142877578735352 -9.865660923951491
			vertex 5.021109033438683 -0.8487319946289062 -8.331519512140316
			vertex 2.222534470710412 -0.8487319946289062 -7.6263818008422835
		endloop
	endfacet
	facet normal -0.2736848822406179 -0.7353633388010529 -0.6199494698604937
		outer loop
			vertex 5.206402663529053 -0.07142877578735352 -9.865660923951491
			vertex 2.222534470710412 -0.8487319946289062 -7.6263818008422835
			vertex 1.2486206542788922 -0.07142877578735352 -8.118445778530988
		endloop
	endfacet
	facet normal -0.07669523797324375 -0.9494546640203966 -0.3043906723967469
		outer loop
			vertex 2.222534470710412 -0.8487319946289062 -7.6263818008422835
			vertex 5.021109033438683 -0.8487319946289062 -8.331519512140316
			vertex 4.573770493268967 -2 -4.6277742424412684
		endloop
	endfacet
	facet normal -0.28853513649209883 0.9429262600858727 -0.16624543016262172
		outer loop
			vertex 1.660635563227903 3.21008038520813 -6.845131858860983
			vertex 0.3953327358875427 3.21008038520813 -4.649075560451077
			vertex 3.002757613941877 3.75 -6.112149220410758
		endloop
	endfacet
	facet normal -0.7646007001150565 0.314327135171137 -0.5626581746306288
		outer loop
			vertex 1.660635563227903 3.21008038520813 -6.845131858860983
			vertex 1.2486206542788922 -0.07142877578735352 -8.118445778530988
			vertex -0.7613337221082297 -0.07142877578735352 -5.3871026777330755
		endloop
	endfacet
	facet normal -0.7995248573676791 0.3854217779499303 -0.4606626265859943
		outer loop
			vertex 1.660635563227903 3.21008038520813 -6.845131858860983
			vertex -0.7613337221082297 -0.07142877578735352 -5.3871026777330755
			vertex 0.3953327358875427 3.21008038520813 -4.649075560451077
		endloop
	endfacet
	facet normal -0.5029869711085538 -0.814046769250222 -0.29039966316839794
		outer loop
			vertex 1.2486206542788922 -0.07142877578735352 -8.118445778530988
			vertex 2.222534470710412 -0.8487319946289062 -7.6263818008422835
			vertex 0.8012821604343805 -0.8487319946289062 -5.164700589069549
		endloop
	endfacet
	facet normal -0.39302739807768944 -0.87285711502917 -0.28922296088525845
		outer loop
			vertex 1.2486206542788922 -0.07142877578735352 -8.118445778530988
			vertex 0.8012821604343805 -0.8487319946289062 -5.164700589069549
			vertex -0.7613337221082297 -0.07142877578735352 -5.3871026777330755
		endloop
	endfacet
	facet normal -0.2681439061249126 -0.9508584511608964 -0.15481295638277598
		outer loop
			vertex 0.8012821604343805 -0.8487319946289062 -5.164700589069549
			vertex 2.222534470710412 -0.8487319946289062 -7.6263818008422835
			vertex 4.573770493268967 -2 -4.6277742424412684
		endloop
	endfacet
	facet normal 0.001819613198228081 0.9370981774830177 0.34906116192698344
		outer loop
			vertex 0.3953327358875427 3.21008038520813 -4.649075560451077
			vertex 2.232921557256323 2.46008038520813 -2.6451862466743092
			vertex 3.002757613941877 3.75 -6.112149220410758
		endloop
	endfacet
	facet normal -0.906923652907266 0.2421339144315574 0.34476173697119084
		outer loop
			vertex 0.3953327358875427 3.21008038520813 -4.649075560451077
			vertex -0.7613337221082297 -0.07142877578735352 -5.3871026777330755
			vertex 0.5814026635290537 -0.07142877578735352 -1.8549259389454313
		endloop
	endfacet
	facet normal -0.5090995529369357 0.5410836224380691 0.6693625017348295
		outer loop
			vertex 0.3953327358875427 3.21008038520813 -4.649075560451077
			vertex 0.5814026635290537 -0.07142877578735352 -1.8549259389454313
			vertex 2.232921557256323 2.46008038520813 -2.6451862466743092
		endloop
	endfacet
	facet normal -0.45634799347884586 -0.8803079219350602 0.12963206172165567
		outer loop
			vertex -0.7613337221082297 -0.07142877578735352 -5.3871026777330755
			vertex 0.8012821604343805 -0.8487319946289062 -5.164700589069549
			vertex 1.5899023302526483 -0.8487319946289062 -2.388495170951197
		endloop
	endfacet
	facet normal -0.5290298724042651 -0.8244289654793686 0.20110762039899233
		outer loop
			vertex -0.7613337221082297 -0.07142877578735352 -5.3871026777330755
			vertex 1.5899023302526483 -0.8487319946289062 -2.388495170951197
			vertex 0.5814026635290537 -0.07142877578735352 -1.8549259389454313
		endloop
	endfacet
	facet normal -0.30195767500002324 -0.9494546627881465 0.08577532173316145
		outer loop
			vertex 1.5899023302526483 -0.8487319946289062 -2.388495170951197
			vertex 0.8012821604343805 -0.8487319946289062 -5.164700589069549
			vertex 4.573770493268967 -2 -4.6277742424412684
		endloop
	endfacet
	facet normal -0.511328096218987 0.8363519493296112 0.19763348620521257
		outer loop
			vertex 2.232921557256323 2.46008038520813 -2.6451862466743092
			vertex 4.21186248937557 3.3172231912612915 -1.1524481063997443
			vertex 3.002757613941877 3.75 -6.112149220410758
		endloop
	endfacet
	facet normal -0.40461167943852716 0.5024817844681464 0.7640690054829095
		outer loop
			vertex 2.232921557256323 2.46008038520813 -2.6451862466743092
			vertex 0.5814026635290537 -0.07142877578735352 -1.8549259389454313
			vertex 4.244417067229614 -0.07142877578735352 0.08481824522295778
		endloop
	endfacet
	facet normal -0.6502652620849844 0.2550399091325915 0.7156184274284629
		outer loop
			vertex 2.232921557256323 2.46008038520813 -2.6451862466743092
			vertex 4.244417067229614 -0.07142877578735352 0.08481824522295778
			vertex 4.21186248937557 3.3172231912612915 -1.1524481063997443
		endloop
	endfacet
	facet normal -0.3133877165902666 -0.7791999463304363 0.5428034476023378
		outer loop
			vertex 0.5814026635290537 -0.07142877578735352 -1.8549259389454313
			vertex 1.5899023302526483 -0.8487319946289062 -2.388495170951197
			vertex 4.126432012703895 -0.8487319946289062 -0.9240290759804939
		endloop
	endfacet
	facet normal -0.3185930651441673 -0.7324876322561923 0.6016313883382097
		outer loop
			vertex 0.5814026635290537 -0.07142877578735352 -1.8549259389454313
			vertex 4.126432012703895 -0.8487319946289062 -0.9240290759804939
			vertex 4.244417067229614 -0.07142877578735352 0.08481824522295778
		endloop
	endfacet
	facet normal -0.15905013741398183 -0.948057073785315 0.2754829189518282
		outer loop
			vertex 4.126432012703895 -0.8487319946289062 -0.9240290759804939
			vertex 1.5899023302526483 -0.8487319946289062 -2.388495170951197
			vertex 4.573770493268967 -2 -4.6277742424412684
		endloop
	endfacet
	facet normal 0.3349766321839297 0.9422262722150915 0.0005548318347842858
		outer loop
			vertex 4.21186248937557 3.3172231912612915 -1.1524481063997443
			vertex 6.925006515827521 2.3529374599456787 -1.6291666840402534
			vertex 3.002757613941877 3.75 -6.112149220410758
		endloop
	endfacet
	facet normal 0.12037126581017644 0.34150046537259343 0.9321417223349452
		outer loop
			vertex 4.21186248937557 3.3172231912612915 -1.1524481063997443
			vertex 4.244417067229614 -0.07142877578735352 0.08481824522295778
			vertex 7.898920315736159 -0.07142877578735352 -0.3871026777330764
		endloop
	endfacet
	facet normal 0.3262618547347807 0.5315387033724015 0.781677560738574
		outer loop
			vertex 4.21186248937557 3.3172231912612915 -1.1524481063997443
			vertex 7.898920315736159 -0.07142877578735352 -0.3871026777330764
			vertex 6.925006515827521 2.3529374599456787 -1.6291666840402534
		endloop
	endfacet
	facet normal 0.14928364259963384 -0.7916308358508514 0.592482078870127
		outer loop
			vertex 4.244417067229614 -0.07142877578735352 0.08481824522295778
			vertex 4.126432012703895 -0.8487319946289062 -0.9240290759804939
			vertex 6.925006515827521 -0.8487319946289062 -1.6291666840402534
		endloop
	endfacet
	facet normal 0.0636718950899043 -0.8676576224502391 0.49306808858377593
		outer loop
			vertex 4.244417067229614 -0.07142877578735352 0.08481824522295778
			vertex 6.925006515827521 -0.8487319946289062 -1.6291666840402534
			vertex 7.898920315736159 -0.07142877578735352 -0.3871026777330764
		endloop
	endfacet
	facet normal 0.07669522986131051 -0.9494546627881465 0.3043906782842862
		outer loop
			vertex 6.925006515827521 -0.8487319946289062 -1.6291666840402534
			vertex 4.126432012703895 -0.8487319946289062 -0.9240290759804939
			vertex 4.573770493268967 -2 -4.6277742424412684
		endloop
	endfacet
	facet normal 0.5913811888644305 0.7554860328979519 -0.28197365755227455
		outer loop
			vertex 6.925006515827521 2.3529374599456787 -1.6291666840402534
			vertex 6.846258768866608 1.4957947731018066 -4.090847928858752
			vertex 3.002757613941877 3.75 -6.112149220410758
		endloop
	endfacet
	facet normal 0.9131931226947404 0.40178179468157604 0.06818878298870736
		outer loop
			vertex 6.925006515827521 2.3529374599456787 -1.6291666840402534
			vertex 7.898920315736159 -0.07142877578735352 -0.3871026777330764
			vertex 8.158874685503356 -0.07142877578735352 -3.8684456828599356
		endloop
	endfacet
	facet normal 0.7613460812947281 0.6043417811352143 -0.2347832107955724
		outer loop
			vertex 6.925006515827521 2.3529374599456787 -1.6291666840402534
			vertex 8.158874685503356 -0.07142877578735352 -3.8684456828599356
			vertex 6.846258768866608 1.4957947731018066 -4.090847928858752
		endloop
	endfacet
	facet normal 0.4060174406129161 -0.8832891847469037 0.23441427863355
		outer loop
			vertex 7.898920315736159 -0.07142877578735352 -0.3871026777330764
			vertex 6.925006515827521 -0.8487319946289062 -1.6291666840402534
			vertex 8.346258826103552 -0.8487319946289062 -4.090847895812987
		endloop
	endfacet
	facet normal 0.9741177264723097 0.21401829040337775 0.07273806668611685
		outer loop
			vertex 7.898920315736159 -0.07142877578735352 -0.3871026777330764
			vertex 8.346258826103552 -0.8487319946289062 -4.090847895812987
			vertex 8.158874685503356 -0.07142877578735352 -3.8684456828599356
		endloop
	endfacet
	facet normal 0.2681439061249126 -0.9508584511608964 0.15481295638277603
		outer loop
			vertex 8.346258826103552 -0.8487319946289062 -4.090847895812987
			vertex 6.925006515827521 -0.8487319946289062 -1.6291666840402534
			vertex 4.573770493268967 -2 -4.6277742424412684
		endloop
	endfacet
	facet normal 0.4317656946832391 0.8863095967355027 0.16743262414849355
		outer loop
			vertex 6.846258768866608 1.4957947731018066 -4.090847928858752
			vertex 7.330179642823218 1.7100803852081299 -6.473082745975546
			vertex 3.002757613941877 3.75 -6.112149220410758
		endloop
	endfacet
	facet normal 0.7645140347383448 0.6440646618297537 0.026438647284271418
		outer loop
			vertex 6.846258768866608 1.4957947731018066 -4.090847928858752
			vertex 8.158874685503356 -0.07142877578735352 -3.8684456828599356
			vertex 8.262859578788147 -0.07142877578735352 -6.875328352091108
		endloop
	endfacet
	facet normal 0.8841183721427496 0.4139080080143248 0.2168291146070293
		outer loop
			vertex 6.846258768866608 1.4957947731018066 -4.090847928858752
			vertex 8.262859578788147 -0.07142877578735352 -6.875328352091108
			vertex 7.330179642823218 1.7100803852081299 -6.473082745975546
		endloop
	endfacet
	facet normal 0.9187857651717489 0.296166945392697 -0.2609939811078472
		outer loop
			vertex 8.158874685503356 -0.07142877578735352 -3.8684456828599356
			vertex 8.346258826103552 -0.8487319946289062 -4.090847895812987
			vertex 7.557638715889929 -0.8487319946289062 -6.867053417169613
		endloop
	endfacet
	facet normal 0.7405051515259564 -0.671562604826421 0.02560836508394681
		outer loop
			vertex 8.158874685503356 -0.07142877578735352 -3.8684456828599356
			vertex 7.557638715889929 -0.8487319946289062 -6.867053417169613
			vertex 8.262859578788147 -0.07142877578735352 -6.875328352091108
		endloop
	endfacet
	facet normal 0.30195767395723144 -0.9494546640203965 -0.08577531176425153
		outer loop
			vertex 7.557638715889929 -0.8487319946289062 -6.867053417169613
			vertex 8.346258826103552 -0.8487319946289062 -4.090847895812987
			vertex 4.573770493268967 -2 -4.6277742424412684
		endloop
	endfacet
	facet normal 0.4274546410447486 0.9038881191339846 0.01639505833271103
		outer loop
			vertex 7.330179642823218 1.7100803852081299 -6.473082745975546
			vertex 4.209210195360262 3.21008038520813 -7.800269473982352
			vertex 3.002757613941877 3.75 -6.112149220410758
		endloop
	endfacet
	facet normal 0.6185454116855107 0.4665784981356787 -0.6322231241897569
		outer loop
			vertex 7.330179642823218 1.7100803852081299 -6.473082745975546
			vertex 8.262859578788147 -0.07142877578735352 -6.875328352091108
			vertex 5.206402663529053 -0.07142877578735352 -9.865660923951491
		endloop
	endfacet
	facet normal 0.5373288604842399 0.5601262611821212 -0.6305047717700845
		outer loop
			vertex 7.330179642823218 1.7100803852081299 -6.473082745975546
			vertex 5.206402663529053 -0.07142877578735352 -9.865660923951491
			vertex 4.209210195360262 3.21008038520813 -7.800269473982352
		endloop
	endfacet
	facet normal 0.453752561552988 -0.42004101173148256 -0.7859224906742995
		outer loop
			vertex 8.262859578788147 -0.07142877578735352 -6.875328352091108
			vertex 7.557638715889929 -0.8487319946289062 -6.867053417169613
			vertex 5.021109033438683 -0.8487319946289062 -8.331519512140316
		endloop
	endfacet
	facet normal 0.37442746789514736 -0.8445942032514965 -0.3827070722100631
		outer loop
			vertex 8.262859578788147 -0.07142877578735352 -6.875328352091108
			vertex 5.021109033438683 -0.8487319946289062 -8.331519512140316
			vertex 5.206402663529053 -0.07142877578735352 -9.865660923951491
		endloop
	endfacet
	facet normal 0.1590501324473013 -0.9480570771182417 -0.27548291034928507
		outer loop
			vertex 5.021109033438683 -0.8487319946289062 -8.331519512140316
			vertex 7.557638715889929 -0.8487319946289062 -6.867053417169613
			vertex 4.573770493268967 -2 -4.6277742424412684
		endloop
	endfacet
	facet normal 0.18710031660067258 0.9643583063653554 0.18710031660067258
		outer loop
			vertex 2.5931458473205566 4.578427076339722 8.906854152679443
			vertex 5.906854152679443 4.578427076339722 5.593145847320557
			vertex 3.5 5.5 3.25
		endloop
	endfacet
	facet normal 0.6704863731286389 0.31764138095910505 0.6704863731286389
		outer loop
			vertex 2.5931458473205566 4.578427076339722 8.906854152679443
			vertex 2.063708543777466 0.75 11.25
			vertex 6.75 0.75 6.563708543777466
		endloop
	endfacet
	facet normal 0.6704863731286389 0.31764138095910505 0.6704863731286389
		outer loop
			vertex 2.5931458473205566 4.578427076339722 8.906854152679443
			vertex 6.75 0.75 6.563708543777466
			vertex 5.906854152679443 4.578427076339722 5.593145847320557
		endloop
	endfacet
	facet normal 0.25521976325961127 -0.9325908775467495 0.25521976325961127
		outer loop
			vertex 2.063708543777466 0.75 11.25
			vertex 1.0931458473205566 -0.15685415267944336 8.906854152679443
			vertex 4.406854152679443 -0.15685415267944336 5.593145847320557
		endloop
	endfacet
	facet normal 0.25521976325961127 -0.9325908775467495 0.25521976325961127
		outer loop
			vertex 2.063708543777466 0.75 11.25
			vertex 4.406854152679443 -0.15685415267944336 5.593145847320557
			vertex 6.75 0.75 6.563708543777466
		endloop
	endfacet
	facet normal 0.163351778584008 -0.9729503547801823 0.163351778584008
		outer loop
			vertex 4.406854152679443 -0.15685415267944336 5.593145847320557
			vertex 1.0931458473205566 -0.15685415267944336 8.906854152679443
			vertex -1.25 -1.5 3.25
		endloop
	endfacet
	facet normal 0.4121613258797922 0.908719950491333 -0.06596281549510274
		outer loop
			vertex 5.906854152679443 4.578427076339722 5.593145847320557
			vertex 5.156854152679443 4.578427076339722 0.9068541526794434
			vertex 3.5 5.5 3.25
		endloop
	endfacet
	facet normal 0.9765967004321959 0.21507878720354573 0
		outer loop
			vertex 5.906854152679443 4.578427076339722 5.593145847320557
			vertex 6.75 0.75 6.563708543777466
			vertex 6.75 0.75 -0.06370854377746582
		endloop
	endfacet
	facet normal 0.9001355771769032 0.41109974113811726 -0.14405882665278227
		outer loop
			vertex 5.906854152679443 4.578427076339722 5.593145847320557
			vertex 6.75 0.75 -0.06370854377746582
			vertex 5.156854152679443 4.578427076339722 0.9068541526794434
		endloop
	endfacet
	facet normal 0.3609352418605302 -0.9325908809242563 0
		outer loop
			vertex 6.75 0.75 6.563708543777466
			vertex 4.406854152679443 -0.15685415267944336 5.593145847320557
			vertex 4.406854152679443 -0.15685415267944336 0.9068541526794434
		endloop
	endfacet
	facet normal 0.3609352418605302 -0.9325908809242563 0
		outer loop
			vertex 6.75 0.75 6.563708543777466
			vertex 4.406854152679443 -0.15685415267944336 0.9068541526794434
			vertex 6.75 0.75 -0.06370854377746582
		endloop
	endfacet
	facet normal 0.23101430445391608 -0.9729503538915403 0
		outer loop
			vertex 4.406854152679443 -0.15685415267944336 0.9068541526794434
			vertex 4.406854152679443 -0.15685415267944336 5.593145847320557
			vertex -1.25 -1.5 3.25
		endloop
	endfacet
	facet normal 0.17658510097151828 0.9521105438892813 -0.24960611837400104
		outer loop
			vertex 5.156854152679443 4.578427076339722 0.9068541526794434
			vertex 2.5931458473205566 4.578427076339722 -0.9068541526794434
			vertex 3.5 5.5 3.25
		endloop
	endfacet
	facet normal 0.5839242390201289 0.41923072102587083 -0.6951820521510116
		outer loop
			vertex 5.156854152679443 4.578427076339722 0.9068541526794434
			vertex 6.75 0.75 -0.06370854377746582
			vertex 2.063708543777466 0.75 -4
		endloop
	endfacet
	facet normal 0.49965393735738123 0.5015269338255566 -0.7062695501936935
		outer loop
			vertex 5.156854152679443 4.578427076339722 0.9068541526794434
			vertex 2.063708543777466 0.75 -4
			vertex 2.5931458473205566 4.578427076339722 -0.9068541526794434
		endloop
	endfacet
	facet normal 0.25521976325961127 -0.9325908775467495 -0.25521976325961127
		outer loop
			vertex 6.75 0.75 -0.06370854377746582
			vertex 4.406854152679443 -0.15685415267944336 0.9068541526794434
			vertex 1.0931458473205566 -0.15685415267944336 -2.4068541526794434
		endloop
	endfacet
	facet normal 0.2838193785843487 -0.8973696594332241 -0.33789681068144684
		outer loop
			vertex 6.75 0.75 -0.06370854377746582
			vertex 1.0931458473205566 -0.15685415267944336 -2.4068541526794434
			vertex 2.063708543777466 0.75 -4
		endloop
	endfacet
	facet normal 0.163351778584008 -0.9729503547801823 -0.163351778584008
		outer loop
			vertex 1.0931458473205566 -0.15685415267944336 -2.4068541526794434
			vertex 4.406854152679443 -0.15685415267944336 0.9068541526794434
			vertex -1.25 -1.5 3.25
		endloop
	endfacet
	facet normal -0.16203712186049357 0.9702734268706373 -0.1797594176889708
		outer loop
			vertex 2.5931458473205566 4.578427076339722 -0.9068541526794434
			vertex -1.3431457504630089 3.8284270763397217 -1.4068541526794434
			vertex 3.5 5.5 3.25
		endloop
	endfacet
	facet normal -0.029254680840480968 0.630630205625874 -0.7755318867726777
		outer loop
			vertex 2.5931458473205566 4.578427076339722 -0.9068541526794434
			vertex 2.063708543777466 0.75 -4
			vertex -4.563708543777466 0.75 -3.75
		endloop
	endfacet
	facet normal -0.017685954439982863 0.617218231548831 -0.7865931996014717
		outer loop
			vertex 2.5931458473205566 4.578427076339722 -0.9068541526794434
			vertex -4.563708543777466 0.75 -3.75
			vertex -1.3431457504630089 3.8284270763397217 -1.4068541526794434
		endloop
	endfacet
	facet normal 0 -0.8690678935895518 -0.4946928302813977
		outer loop
			vertex 2.063708543777466 0.75 -4
			vertex 1.0931458473205566 -0.15685415267944336 -2.4068541526794434
			vertex -3.5931458473205566 -0.15685415267944336 -2.4068541526794434
		endloop
	endfacet
	facet normal -0.020714185255563115 -0.8354827105171218 -0.5491261812699897
		outer loop
			vertex 2.063708543777466 0.75 -4
			vertex -3.5931458473205566 -0.15685415267944336 -2.4068541526794434
			vertex -4.563708543777466 0.75 -3.75
		endloop
	endfacet
	facet normal 0 -0.9729503538915403 -0.23101430445391608
		outer loop
			vertex -3.5931458473205566 -0.15685415267944336 -2.4068541526794434
			vertex 1.0931458473205566 -0.15685415267944336 -2.4068541526794434
			vertex -1.25 -1.5 3.25
		endloop
	endfacet
	facet normal -0.1313149807909301 0.968601451798111 -0.2111104056991726
		outer loop
			vertex -1.3431457504630089 3.8284270763397217 -1.4068541526794434
			vertex -6.906854152679443 3.5784270763397217 0.9068541526794434
			vertex 3.5 5.5 3.25
		endloop
	endfacet
	facet normal -0.3871567268038679 0.7796574616270403 -0.49218280284848986
		outer loop
			vertex -1.3431457504630089 3.8284270763397217 -1.4068541526794434
			vertex -4.563708543777466 0.75 -3.75
			vertex -9.25 0.75 -0.06370854377746582
		endloop
	endfacet
	facet normal -0.3424765956403759 0.5460656999252247 -0.7645404062597038
		outer loop
			vertex -1.3431457504630089 3.8284270763397217 -1.4068541526794434
			vertex -9.25 0.75 -0.06370854377746582
			vertex -6.906854152679443 3.5784270763397217 0.9068541526794434
		endloop
	endfacet
	facet normal -0.34280723275668706 -0.8746235775117231 -0.34280723275668706
		outer loop
			vertex -4.563708543777466 0.75 -3.75
			vertex -3.5931458473205566 -0.15685415267944336 -2.4068541526794434
			vertex -6.906854152679443 -0.15685415267944336 0.9068541526794434
		endloop
	endfacet
	facet normal -0.23456828115477488 -0.9252318415271406 -0.298200873406486
		outer loop
			vertex -4.563708543777466 0.75 -3.75
			vertex -6.906854152679443 -0.15685415267944336 0.9068541526794434
			vertex -9.25 0.75 -0.06370854377746582
		endloop
	endfacet
	facet normal -0.163351778584008 -0.9729503547801823 -0.163351778584008
		outer loop
			vertex -6.906854152679443 -0.15685415267944336 0.9068541526794434
			vertex -3.5931458473205566 -0.15685415267944336 -2.4068541526794434
			vertex -1.25 -1.5 3.25
		endloop
	endfacet
	facet normal -0.22189374335608714 0.9536016041211903 0.2034874622106124
		outer loop
			vertex -6.906854152679443 3.5784270763397217 0.9068541526794434
			vertex -6.906854152679443 2.5784270763397217 5.593145847320557
			vertex 3.5 5.5 3.25
		endloop
	endfacet
	facet normal -0.7700761340661606 0.6379519948567577 0
		outer loop
			vertex -6.906854152679443 3.5784270763397217 0.9068541526794434
			vertex -9.25 0.75 -0.06370854377746582
			vertex -9.25 0.75 6.563708543777466
		endloop
	endfacet
	facet normal -0.5604433603938884 0.8099574899353219 0.17283548330154686
		outer loop
			vertex -6.906854152679443 3.5784270763397217 0.9068541526794434
			vertex -9.25 0.75 6.563708543777466
			vertex -6.906854152679443 2.5784270763397217 5.593145847320557
		endloop
	endfacet
	facet normal -0.3609352418605302 -0.9325908809242563 0
		outer loop
			vertex -9.25 0.75 -0.06370854377746582
			vertex -6.906854152679443 -0.15685415267944336 0.9068541526794434
			vertex -6.906854152679443 -0.15685415267944336 5.593145847320557
		endloop
	endfacet
	facet normal -0.3609352418605302 -0.9325908809242563 0
		outer loop
			vertex -9.25 0.75 -0.06370854377746582
			vertex -6.906854152679443 -0.15685415267944336 5.593145847320557
			vertex -9.25 0.75 6.563708543777466
		endloop
	endfacet
	facet normal -0.23101430445391608 -0.9729503538915403 0
		outer loop
			vertex -6.906854152679443 -0.15685415267944336 5.593145847320557
			vertex -6.906854152679443 -0.15685415267944336 0.9068541526794434
			vertex -1.25 -1.5 3.25
		endloop
	endfacet
	facet normal -0.22383118273008787 0.9546719188535663 0.1962170456155633
		outer loop
			vertex -6.906854152679443 2.5784270763397217 5.593145847320557
			vertex -3.5931458473205566 2.8284270763397217 8.156854152679443
			vertex 3.5 5.5 3.25
		endloop
	endfacet
	facet normal -0.3518313438538655 0.7489397975532516 0.5615192651395656
		outer loop
			vertex -6.906854152679443 2.5784270763397217 5.593145847320557
			vertex -9.25 0.75 6.563708543777466
			vertex -4.563708543777466 0.75 9.5
		endloop
	endfacet
	facet normal -0.5078771244994106 0.6221769011732968 0.5957824519542381
		outer loop
			vertex -6.906854152679443 2.5784270763397217 5.593145847320557
			vertex -4.563708543777466 0.75 9.5
			vertex -3.5931458473205566 2.8284270763397217 8.156854152679443
		endloop
	endfacet
	facet normal -0.25521976325961127 -0.9325908775467495 0.25521976325961127
		outer loop
			vertex -9.25 0.75 6.563708543777466
			vertex -6.906854152679443 -0.15685415267944336 5.593145847320557
			vertex -3.5931458473205566 -0.15685415267944336 8.906854152679443
		endloop
	endfacet
	facet normal -0.35318328263133847 -0.746679228115728 0.5636769457501812
		outer loop
			vertex -9.25 0.75 6.563708543777466
			vertex -3.5931458473205566 -0.15685415267944336 8.906854152679443
			vertex -4.563708543777466 0.75 9.5
		endloop
	endfacet
	facet normal -0.163351778584008 -0.9729503547801823 0.163351778584008
		outer loop
			vertex -3.5931458473205566 -0.15685415267944336 8.906854152679443
			vertex -6.906854152679443 -0.15685415267944336 5.593145847320557
			vertex -1.25 -1.5 3.25
		endloop
	endfacet
	facet normal -0.28286584813891863 0.9528443880881434 0.1098839571802077
		outer loop
			vertex -3.5931458473205566 2.8284270763397217 8.156854152679443
			vertex 2.5931458473205566 4.578427076339722 8.906854152679443
			vertex 3.5 5.5 3.25
		endloop
	endfacet
	facet normal -0.20482815200225732 0.5969330715692265 0.7757037683383194
		outer loop
			vertex -3.5931458473205566 2.8284270763397217 8.156854152679443
			vertex -4.563708543777466 0.75 9.5
			vertex 2.063708543777466 0.75 11.25
		endloop
	endfacet
	facet normal -0.24831621793507527 0.5304263190392589 0.8105473311169944
		outer loop
			vertex -3.5931458473205566 2.8284270763397217 8.156854152679443
			vertex 2.063708543777466 0.75 11.25
			vertex 2.5931458473205566 4.578427076339722 8.906854152679443
		endloop
	endfacet
	facet normal 0 -0.5473804260739092 0.8368839042251592
		outer loop
			vertex -4.563708543777466 0.75 9.5
			vertex -3.5931458473205566 -0.15685415267944336 8.906854152679443
			vertex 1.0931458473205566 -0.15685415267944336 8.906854152679443
		endloop
	endfacet
	facet normal -0.10466082287344705 -0.912109885449253 0.3963605290908817
		outer loop
			vertex -4.563708543777466 0.75 9.5
			vertex 1.0931458473205566 -0.15685415267944336 8.906854152679443
			vertex 2.063708543777466 0.75 11.25
		endloop
	endfacet
	facet normal 0 -0.9729503538915403 0.23101430445391608
		outer loop
			vertex 1.0931458473205566 -0.15685415267944336 8.906854152679443
			vertex -3.5931458473205566 -0.15685415267944336 8.906854152679443
			vertex -1.25 -1.5 3.25
		endloop
	endfacet
endsolid exported
