{"asset":{"version":"2.0","generator":"Blockbench 5.0.7 glTF exporter"},"scenes":[{"nodes":[13],"name":"blockbench_export"}],"scene":0,"nodes":[{"name":"cylinder","mesh":0},{"rotation":[0.15154451077815806,-0.01325842671267104,0.08614138154801501,0.9846004965259324],"translation":[-0.015625,0.15625,0.03125],"name":"cylinder","mesh":1},{"rotation":[-0.5304080513648456,-0.8332952919009897,-0.12200036970688762,-0.0969647633647106],"translation":[0.05937499999999996,0.3468749999999996,0.012499999999999997],"name":"cylinder","mesh":2},{"name":"log","children":[0,1,2]},{"translation":[0.09375,0.625,0],"name":"sphere","mesh":3},{"rotation":[0,0.40274668985873724,0,0.9153114791194471],"translation":[0.265625,0.5,0.125],"name":"sphere","mesh":4},{"rotation":[0,0.19509032201612825,0,0.9807852804032304],"translation":[-0.078125,0.4375,0.171875],"name":"sphere","mesh":5},{"rotation":[0.1270837622818432,0.4030581999178559,0.2725320076978044,0.8643610990919672],"translation":[-0.03125,0.453125,-0.1875],"name":"sphere","mesh":6},{"translation":[0.078125,0.1875,0.109375],"name":"sphere","mesh":7},{"rotation":[0,-0.3007057995042731,0,0.9537169507482269],"translation":[-0.203125,0.359375,0.234375],"name":"sphere","mesh":8},{"rotation":[0,-0.3826834323650898,0,0.9238795325112867],"translation":[0.0625,0.671875,0.1875],"name":"sphere","mesh":9},{"rotation":[0,0.25881904510252074,0,0.9659258262890683],"translation":[0.234375,0.4375,-0.171875],"name":"sphere","mesh":10},{"name":"leaves","children":[4,5,6,7,8,9,10,11]},{"translation":[0,0.25,0],"name":"tree","children":[3,12]}],"bufferViews":[{"buffer":0,"byteOffset":0,"byteLength":3744,"target":34962,"byteStride":12},{"buffer":0,"byteOffset":3744,"byteLength":3744,"target":34962,"byteStride":12},{"buffer":0,"byteOffset":7488,"byteLength":2496,"target":34962,"byteStride":8},{"buffer":0,"byteOffset":9984,"byteLength":864,"target":34963},{"buffer":0,"byteOffset":10848,"byteLength":1584,"target":34962,"byteStride":12},{"buffer":0,"byteOffset":12432,"byteLength":1584,"target":34962,"byteStride":12},{"buffer":0,"byteOffset":14016,"byteLength":1056,"target":34962,"byteStride":8},{"buffer":0,"byteOffset":15072,"byteLength":360,"target":34963},{"buffer":0,"byteOffset":15432,"byteLength":1584,"target":34962,"byteStride":12},{"buffer":0,"byteOffset":17016,"byteLength":1584,"target":34962,"byteStride":12},{"buffer":0,"byteOffset":18600,"byteLength":1056,"target":34962,"byteStride":8},{"buffer":0,"byteOffset":19656,"byteLength":360,"target":34963},{"buffer":0,"byteOffset":20016,"byteLength":1344,"target":34962,"byteStride":12},{"buffer":0,"byteOffset":21360,"byteLength":1344,"target":34962,"byteStride":12},{"buffer":0,"byteOffset":22704,"byteLength":896,"target":34962,"byteStride":8},{"buffer":0,"byteOffset":23600,"byteLength":288,"target":34963},{"buffer":0,"byteOffset":23888,"byteLength":1344,"target":34962,"byteStride":12},{"buffer":0,"byteOffset":25232,"byteLength":1344,"target":34962,"byteStride":12},{"buffer":0,"byteOffset":26576,"byteLength":896,"target":34962,"byteStride":8},{"buffer":0,"byteOffset":27472,"byteLength":288,"target":34963},{"buffer":0,"byteOffset":27760,"byteLength":1344,"target":34962,"byteStride":12},{"buffer":0,"byteOffset":29104,"byteLength":1344,"target":34962,"byteStride":12},{"buffer":0,"byteOffset":30448,"byteLength":896,"target":34962,"byteStride":8},{"buffer":0,"byteOffset":31344,"byteLength":288,"target":34963},{"buffer":0,"byteOffset":31632,"byteLength":1344,"target":34962,"byteStride":12},{"buffer":0,"byteOffset":32976,"byteLength":1344,"target":34962,"byteStride":12},{"buffer":0,"byteOffset":34320,"byteLength":896,"target":34962,"byteStride":8},{"buffer":0,"byteOffset":35216,"byteLength":288,"target":34963},{"buffer":0,"byteOffset":35504,"byteLength":1344,"target":34962,"byteStride":12},{"buffer":0,"byteOffset":36848,"byteLength":1344,"target":34962,"byteStride":12},{"buffer":0,"byteOffset":38192,"byteLength":896,"target":34962,"byteStride":8},{"buffer":0,"byteOffset":39088,"byteLength":288,"target":34963},{"buffer":0,"byteOffset":39376,"byteLength":1344,"target":34962,"byteStride":12},{"buffer":0,"byteOffset":40720,"byteLength":1344,"target":34962,"byteStride":12},{"buffer":0,"byteOffset":42064,"byteLength":896,"target":34962,"byteStride":8},{"buffer":0,"byteOffset":42960,"byteLength":288,"target":34963},{"buffer":0,"byteOffset":43248,"byteLength":1344,"target":34962,"byteStride":12},{"buffer":0,"byteOffset":44592,"byteLength":1344,"target":34962,"byteStride":12},{"buffer":0,"byteOffset":45936,"byteLength":896,"target":34962,"byteStride":8},{"buffer":0,"byteOffset":46832,"byteLength":288,"target":34963},{"buffer":0,"byteOffset":47120,"byteLength":1344,"target":34962,"byteStride":12},{"buffer":0,"byteOffset":48464,"byteLength":1344,"target":34962,"byteStride":12},{"buffer":0,"byteOffset":49808,"byteLength":896,"target":34962,"byteStride":8},{"buffer":0,"byteOffset":50704,"byteLength":288,"target":34963}],"buffers":[{"byteLength":50992,"uri":"data:application/octet-stream;base64,"}],"accessors":[{"bufferView":0,"componentType":5126,"count":312,"max":[0.06311936676502228,0.7654406428337097,0.07284916937351227],"min":[-0.03750000149011612,-0.25,-0.05815030261874199],"type":"VEC3"},{"bufferView":1,"componentType":5126,"count":312,"max":[1,0.3421092927455902,0.998818039894104],"min":[-1,-1,-0.9958965182304382],"type":"VEC3"},{"bufferView":2,"componentType":5126,"count":312,"max":[0.4263624846935272,0.9375],"min":[0.01717006042599678,0],"type":"VEC2"},{"bufferView":3,"componentType":5123,"count":432,"max":[311],"min":[0],"type":"SCALAR"},{"bufferView":4,"componentType":5126,"count":132,"max":[0.03186936676502228,0.43731561303138733,0.030093353241682053],"min":[-0.06866820156574249,-0.008696619421243668,-0.05815030261874199],"type":"VEC3"},{"bufferView":5,"componentType":5126,"count":132,"max":[0.9985683560371399,0.3421092927455902,0.9876444339752197],"min":[-0.998469352722168,-0.2958853244781494,-0.9958965182304382],"type":"VEC3"},{"bufferView":6,"componentType":5126,"count":132,"max":[0.527851939201355,0.37747079133987427],"min":[0.031342364847660065,0.03125],"type":"VEC2"},{"bufferView":7,"componentType":5123,"count":180,"max":[131],"min":[0],"type":"SCALAR"},{"bufferView":8,"componentType":5126,"count":132,"max":[0.0297252144664526,0.23598773777484894,0.017692463472485542],"min":[-0.03956235572695732,-0.022524500265717506,-0.03930119425058365],"type":"VEC3"},{"bufferView":9,"componentType":5126,"count":132,"max":[0.9979933500289917,0.3925890326499939,0.9847261309623718],"min":[-0.9978547096252441,-0.3262759745121002,-0.9949122667312622],"type":"VEC3"},{"bufferView":10,"componentType":5126,"count":132,"max":[0.31811824440956116,0.4862890839576721],"min":[0.016700679436326027,0.09375],"type":"VEC2"},{"bufferView":11,"componentType":5123,"count":180,"max":[131],"min":[0],"type":"SCALAR"},{"bufferView":12,"componentType":5126,"count":112,"max":[0.25,0.171875,0.1875],"min":[-0.25,-0.171875,-0.1875],"type":"VEC3"},{"bufferView":13,"componentType":5126,"count":112,"max":[0.8565496206283569,0.9617630243301392,0.9112828969955444],"min":[-0.8565496206283569,-0.9617630243301392,-0.9112828969955444],"type":"VEC3"},{"bufferView":14,"componentType":5126,"count":112,"max":[0.8119663000106812,0.8125],"min":[0.11048594117164612,0.004367411136627197],"type":"VEC2"},{"bufferView":15,"componentType":5123,"count":144,"max":[111],"min":[0],"type":"SCALAR"},{"bufferView":16,"componentType":5126,"count":112,"max":[0.1875,0.1875,0.15625],"min":[-0.1875,-0.1875,-0.15625],"type":"VEC3"},{"bufferView":17,"componentType":5126,"count":112,"max":[0.9238795042037964,0.9238795042037964,0.945270836353302],"min":[-0.9238795042037964,-0.9238795042037964,-0.945270836353302],"type":"VEC3"},{"bufferView":18,"componentType":5126,"count":112,"max":[0.8203125,0.8125],"min":[0.3314765691757202,0.40625],"type":"VEC2"},{"bufferView":19,"componentType":5123,"count":144,"max":[111],"min":[0],"type":"SCALAR"},{"bufferView":20,"componentType":5126,"count":112,"max":[0.171875,0.125,0.140625],"min":[-0.171875,-0.125,-0.140625],"type":"VEC3"},{"bufferView":21,"componentType":5126,"count":112,"max":[0.8689478039741516,0.957497239112854,0.906417965888977],"min":[-0.8689478039741516,-0.957497239112854,-0.906417965888977],"type":"VEC3"},{"bufferView":22,"componentType":5126,"count":112,"max":[0.8339212536811829,0.8132831454277039],"min":[0.09574400633573532,0.1875],"type":"VEC2"},{"bufferView":23,"componentType":5123,"count":144,"max":[111],"min":[0],"type":"SCALAR"},{"bufferView":24,"componentType":5126,"count":112,"max":[0.23125000298023224,0.16875000298023224,0.16875000298023224],"min":[-0.23125000298023224,-0.16875000298023224,-0.16875000298023224],"type":"VEC3"},{"bufferView":25,"componentType":5126,"count":112,"max":[0.8696640729904175,0.9572277665138245,0.9238795042037964],"min":[-0.8696640729904175,-0.9572277665138245,-0.9238795042037964],"type":"VEC3"},{"bufferView":26,"componentType":5126,"count":112,"max":[0.8182562589645386,0.828125],"min":[0.09437926113605499,0.15885424613952637],"type":"VEC2"},{"bufferView":27,"componentType":5123,"count":144,"max":[111],"min":[0],"type":"SCALAR"},{"bufferView":28,"componentType":5126,"count":112,"max":[0.09375,0.078125,0.0625],"min":[-0.09375,-0.078125,-0.0625],"type":"VEC3"},{"bufferView":29,"componentType":5126,"count":112,"max":[0.895479142665863,0.945270836353302,0.9492406845092773],"min":[-0.895479142665863,-0.945270836353302,-0.9492406845092773],"type":"VEC3"},{"bufferView":30,"componentType":5126,"count":112,"max":[0.865707278251648,0.7578125],"min":[0.002620294690132141,0.006516575813293457],"type":"VEC2"},{"bufferView":31,"componentType":5123,"count":144,"max":[111],"min":[0],"type":"SCALAR"},{"bufferView":32,"componentType":5126,"count":112,"max":[0.09375,0.078125,0.0625],"min":[-0.09375,-0.078125,-0.0625],"type":"VEC3"},{"bufferView":33,"componentType":5126,"count":112,"max":[0.895479142665863,0.945270836353302,0.9492406845092773],"min":[-0.895479142665863,-0.945270836353302,-0.9492406845092773],"type":"VEC3"},{"bufferView":34,"componentType":5126,"count":112,"max":[0.865707278251648,0.8137959241867065],"min":[0.03259062394499779,0.03125],"type":"VEC2"},{"bufferView":35,"componentType":5123,"count":144,"max":[111],"min":[0],"type":"SCALAR"},{"bufferView":36,"componentType":5126,"count":112,"max":[0.109375,0.078125,0.0625],"min":[-0.109375,-0.078125,-0.0625],"type":"VEC3"},{"bufferView":37,"componentType":5126,"count":112,"max":[0.8650690913200378,0.9589102268218994,0.9492406845092773],"min":[-0.8650690913200378,-0.9589102268218994,-0.9492406845092773],"type":"VEC3"},{"bufferView":38,"componentType":5126,"count":112,"max":[0.857590913772583,0.4921875],"min":[0.04821562394499779,0.125],"type":"VEC2"},{"bufferView":39,"componentType":5123,"count":144,"max":[111],"min":[0],"type":"SCALAR"},{"bufferView":40,"componentType":5126,"count":112,"max":[0.25,0.171875,0.1875],"min":[-0.25,-0.171875,-0.1875],"type":"VEC3"},{"bufferView":41,"componentType":5126,"count":112,"max":[0.8565496206283569,0.9617630243301392,0.9112828969955444],"min":[-0.8565496206283569,-0.9617630243301392,-0.9112828969955444],"type":"VEC3"},{"bufferView":42,"componentType":5126,"count":112,"max":[0.8119663596153259,0.78125],"min":[0.3125,0.09811782836914062],"type":"VEC2"},{"bufferView":43,"componentType":5123,"count":144,"max":[111],"min":[0],"type":"SCALAR"}],"materials":[{"pbrMetallicRoughness":{"metallicFactor":0,"roughnessFactor":1,"baseColorTexture":{"index":0}},"alphaMode":"MASK","alphaCutoff":0.05,"doubleSided":true}],"textures":[{"sampler":0,"source":0,"name":"texture"}],"samplers":[{"magFilter":9728,"minFilter":9728,"wrapS":33071,"wrapT":33071}],"images":[{"mimeType":"image/png","uri":"data:image/png;base64,"}],"meshes":[{"primitives":[{"mode":4,"attributes":{"POSITION":0,"NORMAL":1,"TEXCOORD_0":2},"indices":3,"material":0}]},{"primitives":[{"mode":4,"attributes":{"POSITION":4,"NORMAL":5,"TEXCOORD_0":6},"indices":7,"material":0}]},{"primitives":[{"mode":4,"attributes":{"POSITION":8,"NORMAL":9,"TEXCOORD_0":10},"indices":11,"material":0}]},{"primitives":[{"mode":4,"attributes":{"POSITION":12,"NORMAL":13,"TEXCOORD_0":14},"indices":15,"material":0}]},{"primitives":[{"mode":4,"attributes":{"POSITION":16,"NORMAL":17,"TEXCOORD_0":18},"indices":19,"material":0}]},{"primitives":[{"mode":4,"attributes":{"POSITION":20,"NORMAL":21,"TEXCOORD_0":22},"indices":23,"material":0}]},{"primitives":[{"mode":4,"attributes":{"POSITION":24,"NORMAL":25,"TEXCOORD_0":26},"indices":27,"material":0}]},{"primitives":[{"mode":4,"attributes":{"POSITION":28,"NORMAL":29,"TEXCOORD_0":30},"indices":31,"material":0}]},{"primitives":[{"mode":4,"attributes":{"POSITION":32,"NORMAL":33,"TEXCOORD_0":34},"indices":35,"material":0}]},{"primitives":[{"mode":4,"attributes":{"POSITION":36,"NORMAL":37,"TEXCOORD_0":38},"indices":39,"material":0}]},{"primitives":[{"mode":4,"attributes":{"POSITION":40,"NORMAL":41,"TEXCOORD_0":42},"indices":43,"material":0}]}]}