solid exported
	facet normal 0.7241370898646504 0.5280167119523037 0.4436483145256308
		outer loop
			vertex 0.875 11.600000381469727 1.4282032251358032
			vertex 1.75 11.600000381469727 1.0098113053695485e-16
			vertex 0 14 0
		endloop
	endfacet
	facet normal 0.8526944368267507 0 0.5224099897635099
		outer loop
			vertex 0.875 11.600000381469727 1.4282032251358032
			vertex 0.875 4.400000095367432 1.4282032251358032
			vertex 1.75 4.400000095367432 1.0098113053695485e-16
		endloop
	endfacet
	facet normal 0.8526944368267507 0 0.5224099897635099
		outer loop
			vertex 0.875 11.600000381469727 1.4282032251358032
			vertex 1.75 4.400000095367432 1.0098113053695485e-16
			vertex 1.75 11.600000381469727 1.0098113053695485e-16
		endloop
	endfacet
	facet normal 0.7241371299767093 -0.5280166362931878 0.44364833910060086
		outer loop
			vertex 1.75 4.400000095367432 1.0098113053695485e-16
			vertex 0.875 4.400000095367432 1.4282032251358032
			vertex 0 2 0
		endloop
	endfacet
	facet normal 0.7241370898646504 0.5280167119523037 -0.4436483145256308
		outer loop
			vertex 1.75 11.600000381469727 1.0098113053695485e-16
			vertex 0.875 11.600000381469727 -1.4282032251358032
			vertex 0 14 0
		endloop
	endfacet
	facet normal 0.8526944368267507 0 -0.5224099897635099
		outer loop
			vertex 1.75 11.600000381469727 1.0098113053695485e-16
			vertex 1.75 4.400000095367432 1.0098113053695485e-16
			vertex 0.875 4.400000095367432 -1.4282032251358032
		endloop
	endfacet
	facet normal 0.8526944368267507 0 -0.5224099897635099
		outer loop
			vertex 1.75 11.600000381469727 1.0098113053695485e-16
			vertex 0.875 4.400000095367432 -1.4282032251358032
			vertex 0.875 11.600000381469727 -1.4282032251358032
		endloop
	endfacet
	facet normal 0.7241371299767093 -0.5280166362931878 -0.44364833910060086
		outer loop
			vertex 0.875 4.400000095367432 -1.4282032251358032
			vertex 1.75 4.400000095367432 1.0098113053695485e-16
			vertex 0 2 0
		endloop
	endfacet
	facet normal 0 0.511386567953122 -0.8593507887452754
		outer loop
			vertex 0.875 11.600000381469727 -1.4282032251358032
			vertex -0.875 11.600000381469727 -1.4282032251358032
			vertex 0 14 0
		endloop
	endfacet
	facet normal 0 0 -1
		outer loop
			vertex 0.875 11.600000381469727 -1.4282032251358032
			vertex 0.875 4.400000095367432 -1.4282032251358032
			vertex -0.875 4.400000095367432 -1.4282032251358032
		endloop
	endfacet
	facet normal 0 0 -1
		outer loop
			vertex 0.875 11.600000381469727 -1.4282032251358032
			vertex -0.875 4.400000095367432 -1.4282032251358032
			vertex -0.875 11.600000381469727 -1.4282032251358032
		endloop
	endfacet
	facet normal 0 -0.5113864929206695 -0.859350833395941
		outer loop
			vertex -0.875 4.400000095367432 -1.4282032251358032
			vertex 0.875 4.400000095367432 -1.4282032251358032
			vertex 0 2 0
		endloop
	endfacet
	facet normal -0.7241370898646504 0.5280167119523038 -0.44364831452563086
		outer loop
			vertex -0.875 11.600000381469727 -1.4282032251358032
			vertex -1.75 11.600000381469727 -3.0294339822830945e-16
			vertex 0 14 0
		endloop
	endfacet
	facet normal -0.8526944368267506 0 -0.5224099897635099
		outer loop
			vertex -0.875 11.600000381469727 -1.4282032251358032
			vertex -0.875 4.400000095367432 -1.4282032251358032
			vertex -1.75 4.400000095367432 -3.0294339822830945e-16
		endloop
	endfacet
	facet normal -0.8526944368267506 0 -0.5224099897635099
		outer loop
			vertex -0.875 11.600000381469727 -1.4282032251358032
			vertex -1.75 4.400000095367432 -3.0294339822830945e-16
			vertex -1.75 11.600000381469727 -3.0294339822830945e-16
		endloop
	endfacet
	facet normal -0.7241371299767093 -0.5280166362931878 -0.4436483391006009
		outer loop
			vertex -1.75 4.400000095367432 -3.0294339822830945e-16
			vertex -0.875 4.400000095367432 -1.4282032251358032
			vertex 0 2 0
		endloop
	endfacet
	facet normal -0.7241370898646505 0.5280167119523037 0.4436483145256308
		outer loop
			vertex -1.75 11.600000381469727 -3.0294339822830945e-16
			vertex -0.875 11.600000381469727 1.4282032251358032
			vertex 0 14 0
		endloop
	endfacet
	facet normal -0.8526944368267507 0 0.5224099897635099
		outer loop
			vertex -1.75 11.600000381469727 -3.0294339822830945e-16
			vertex -1.75 4.400000095367432 -3.0294339822830945e-16
			vertex -0.875 4.400000095367432 1.4282032251358032
		endloop
	endfacet
	facet normal -0.8526944368267507 0 0.5224099897635099
		outer loop
			vertex -1.75 11.600000381469727 -3.0294339822830945e-16
			vertex -0.875 4.400000095367432 1.4282032251358032
			vertex -0.875 11.600000381469727 1.4282032251358032
		endloop
	endfacet
	facet normal -0.7241371299767093 -0.5280166362931878 0.44364833910060086
		outer loop
			vertex -0.875 4.400000095367432 1.4282032251358032
			vertex -1.75 4.400000095367432 -3.0294339822830945e-16
			vertex 0 2 0
		endloop
	endfacet
	facet normal 0 0.511386567953122 0.8593507887452754
		outer loop
			vertex -0.875 11.600000381469727 1.4282032251358032
			vertex 0.875 11.600000381469727 1.4282032251358032
			vertex 0 14 0
		endloop
	endfacet
	facet normal 0 0 1
		outer loop
			vertex -0.875 11.600000381469727 1.4282032251358032
			vertex -0.875 4.400000095367432 1.4282032251358032
			vertex 0.875 4.400000095367432 1.4282032251358032
		endloop
	endfacet
	facet normal 0 0 1
		outer loop
			vertex -0.875 11.600000381469727 1.4282032251358032
			vertex 0.875 4.400000095367432 1.4282032251358032
			vertex 0.875 11.600000381469727 1.4282032251358032
		endloop
	endfacet
	facet normal 0 -0.5113864929206695 0.859350833395941
		outer loop
			vertex 0.875 4.400000095367432 1.4282032251358032
			vertex -0.875 4.400000095367432 1.4282032251358032
			vertex 0 2 0
		endloop
	endfacet
endsolid exported
